<ttFont>
<head>
    <!-- Most of this table will be recalculated by the compiler -->
    <tableVersion value="1.0"/>
    <fontRevision value="4.00099"/>
    <checkSumAdjustment value="0xa1dba48e"/>
    <magicNumber value="0x5f0f3cf5"/>
    <flags value="00000000 00000011"/>
    <unitsPerEm value="1000"/>
    <created value="Mon Mar 26 22:57:21 2018"/>
    <modified value="Mon Mar 26 22:57:21 2018"/>
    <xMin value="-543"/>
    <yMin value="-593"/>
    <xMax value="2510"/>
    <yMax value="1091"/>
    <macStyle value="00000000 00000000"/>
    <lowestRecPPEM value="3"/>
    <fontDirectionHint value="2"/>
    <indexToLocFormat value="0"/>
    <glyphDataFormat value="0"/>
  </head>
          <CharString index="0">
            -3 hlineto
            -107 callgsubr
            return
          </CharString>
          <CharString index="1">
            hvcurveto
            -106 callgsubr
            return
          </CharString>
          <CharString index="2">
            -24 callsubr
            -135 -85 -85 -122 -14 1 -14 2 -14 hvcurveto
            128 hlineto
            13 -1 12 13 vvcurveto
            60 34 39 56 57 34 -39 -60 -95 -86 -35 -95 vhcurveto
            -142 -185 hlineto
            -140 84 -91 146 131 82 79 132 vhcurveto
            return
          </CharString>
          <CharString index="3">
            -106 callsubr
            32 63 74 return
          </CharString>
          <CharString index="4">
            131 callgsubr
            -80 -156 136 callsubr
            163 -21 callsubr
            hvcurveto
            98 callgsubr
            -10 -11 99 callsubr
            return
          </CharString>
          <CharString index="5">
            -11 307 448 rmoveto
            72 58 -46 -73 2 hvcurveto
            -263 hlineto
            76 11 53 43 67 hhcurveto
            263 -274 rmoveto
            -151 hlineto
            -37 -18 -33 -30 -60 hhcurveto
            -70 -56 46 82 -7 hvcurveto
            405 hlineto
            3 18 1 18 18 vvcurveto
            165 -113 109 -160 -164 -114 -111 -175 -174 117 294 callsubr
            137 92 81 102 30 vhcurveto
            return
          </CharString>
          <CharString index="6">
            23 callsubr
            67 47 -50 -71 -74 -45 -47 -65 -12 -14 2 3 -11 vhcurveto
            -100 vlineto
            -6 21 26 -3 23 hhcurveto
            120 88 85 147 128 -80 97 -124 -78 -54 -34 -48 -30 hvcurveto
            172 vlineto
            return
          </CharString>
          <CharString index="7">
            rmoveto
            -98 callgsubr
            return
          </CharString>
          <CharString index="8">
            3 0 8 -1 8 vhcurveto
            -124 -13 hlineto
            -54 -30 -39 -53 0 callsubr
            return
          </CharString>
          <CharString index="9">
            142 325 hlineto
            149 -107 90 -140 -140 -95 -88 -120 -19 vhcurveto
            140 hlineto
            55 11 40 34 59 hhcurveto
            67 40 -47 -69 2 hvcurveto
            -141 hlineto
            -161 -69 -80 -95 -97 79 -67 105 81 76 39 50 30 hvcurveto
            -228 90 rmoveto
            38 28 31 67 vhcurveto
            133 -4 hlineto
            -87 -80 -44 -66 -52 -30 26 40 vhcurveto
            endchar
          </CharString>
          <CharString index="10">
            157 750 351 rmoveto
            209 -158 148 -199 -197 -161 -148 -209 -210 161 -148 197 198 159 148 210 vhcurveto
            -571 hmoveto
            142 87 89 127 126 87 -89 -142 -142 283 callsubr
            -127 -87 91 142 vhcurveto
            return
          </CharString>
          <CharString index="11">
            rmoveto
            74 hlineto
            30 5 16 14 23 40 26 -45 57 hhcurveto
            64 47 40 91 13 hvcurveto
            -75 hlineto
            -30 -4 -16 -13 -23 -40 -26 44 -57 hhcurveto
            -64 -47 -40 -91 -13 hvcurveto
            return
          </CharString>
          <CharString index="12">
            10 604 277 rmoveto
            175 -125 111 -160 -160 -125 -111 -175 -174 121 -112 160 161 128 112 174 vhcurveto
            -428 hmoveto
            111 67 53 74 74 69 -53 -111 -110 -71 -54 -74 -75 -64 54 110 vhcurveto
            return
          </CharString>
          <CharString index="13">
            -23 callsubr
            48 callgsubr
            hvcurveto
            return
          </CharString>
          <CharString index="14">
            170 callgsubr
            143 76 70 104 130 -104 43 -101 hvcurveto
            -45 hlineto
            -41 -37 15 45 48 46 12 41 hvcurveto
            return
          </CharString>
          <CharString index="15">
            285 callsubr
            -48 -44 -63 -10 -12 1 3 -9 vhcurveto
            -102 vlineto
            -5 22 20 -2 24 hhcurveto
            119 88 83 145 130 -79 99 -126 -75 -52 -34 -49 -28 hvcurveto
            173 439 108 return
          </CharString>
          <CharString index="16">
            rmoveto
            -77 -56 52 81 79 57 52 76 91 44 -66 -66 hvcurveto
            -1 vlineto
            -62 -44 -69 -91 vhcurveto
            return
          </CharString>
          <CharString index="17">
            167 -260 vlineto
            -100 -70 -71 -104 -75 callsubr
            return
          </CharString>
          <CharString index="18">
            -86 -37 58 87 hvcurveto
            204 246 -218 vlineto
            -71 -43 -60 -80 vhcurveto
            362 -10 callgsubr
            return
          </CharString>
          <CharString index="19">
            -108 260 callsubr
            120 10 55 70 113 -82 callsubr
            return
          </CharString>
          <CharString index="20">
            rmoveto
            -124 hlineto
            -36 -10 -37 -37 -60 hhcurveto
            -70 -45 47 71 70 45 49 70 63 36 -39 -36 8 hvcurveto
            124 hlineto
            97 -13 -71 81 -145 hhcurveto
            286 callsubr
            45 37 15 42 vhcurveto
            177 180 133 108 return
          </CharString>
          <CharString index="21">
            33 592 554 rmoveto
            -141 -305 hlineto
            -89 -48 -48 -76 -74 -49 48 89 vhcurveto
            305 -140 -325 vlineto
            -152 93 -84 129 69 61 30 47 35 vhcurveto
            return
          </CharString>
          <CharString index="22">
            98 callgsubr
            -10 -11 -1 -6 hhcurveto
            -79 -48 54 82 72 37 53 71 72 -30 callgsubr
            return
          </CharString>
          <CharString index="23">
            rmoveto
            -105 callsubr
            endchar
          </CharString>
          <CharString index="24">
            -83 -73 56 95 28 7 26 11 21 hvcurveto
            239 -191 rlineto
            -21 -25 -34 -14 -42 hhcurveto
            return
          </CharString>
          <CharString index="25">
            vvcurveto
            77 -90 callsubr
            return
          </CharString>
          <CharString index="26">
            126 316 -119 vlineto
            -73 -55 -35 -55 -74 -47 47 73 84 63 45 85 129 callgsubr
            return
          </CharString>
          <CharString index="27">
            rmoveto
            21 -75 vlineto
            -43 -20 -26 -65 -65 -20 26 43 vhcurveto
            -74 -20 hlineto
            -96 63 -59 96 98 62 58 96 vhcurveto
            return
          </CharString>
          <CharString index="28">
            rmoveto
            -135 -69 44 79 53 36 44 82 hvcurveto
            18 104 -20 hlineto
            -72 -28 36 60 hvcurveto
            79 310 -96 vlineto
            -72 -17 -56 -52 -98 vvcurveto
            -36 6 -34 10 -27 vhcurveto
            193 callsubr
            return
          </CharString>
          <CharString index="29">
            -99 callsubr
            116 return
          </CharString>
          <CharString index="30">
            -85 -27 vlineto
            -166 -126 -93 -178 -175 137 -103 177 162 94 77 123 98 -66 69 -111 -95 -70 -50 -88 -11 2 -13 2 -12 hvcurveto
            93 hlineto
            -2 5 -1 7 6 vvcurveto
            38 30 25 36 42 30 -31 -43 -67 -62 -40 -81 -124 -68 78 103 124 90 62 118 vhcurveto
            return
          </CharString>
          <CharString index="31">
            -23 -106 callsubr
            return
          </CharString>
          <CharString index="32">
            vhcurveto
            414 431 -84 callgsubr
            return
          </CharString>
          <CharString index="33">
            63 callgsubr
            141 87 63 43 48 33 vhcurveto
            -86 vlineto
            -103 -60 -44 -77 -70 -52 33 50 -14 vhcurveto
            -139 hlineto
            -127 14 109 -78 156 hhcurveto
            182 92 119 150 hvcurveto
            558 -141 -79 vlineto
            48 -33 -63 40 -87 hhcurveto
            -141 -112 -111 -173 hvcurveto
            436 -2 rmoveto
            -105 -70 -58 -77 -75 -71 60 105 105 71 56 75 77 70 -58 -105 vhcurveto
            return
          </CharString>
          <CharString index="34">
            rmoveto
            66 44 42 66 66 43 -42 -66 -66 -43 -42 -66 -66 -44 42 66 vhcurveto
            return
          </CharString>
          <CharString index="35">
            632 -84 callgsubr
            return
          </CharString>
          <CharString index="36">
            rmoveto
            56 44 31 49 56 39 -38 -50 -45 -27 -30 -40 -25 vhcurveto
            -73 2 -48 40 59 vvcurveto
            288 -612 rmoveto
            299 -107 vlineto
            -52 -35 -49 -63 -56 -37 40 50 68 57 28 69 32 vhcurveto
            return
          </CharString>
          <CharString index="37">
            203 rmoveto
            -105 callsubr
            return
          </CharString>
          <CharString index="38">
            -96 474 699 rmoveto
            -405 -699 405 114 -265 185 235 111 -235 175 265 hlineto
            return
          </CharString>
          <CharString index="39">
            225 callsubr
            vhcurveto
            -158 126 632 110 vlineto
            endchar
          </CharString>
          <CharString index="40">
            -73 callgsubr
            287 vlineto
            77 return
          </CharString>
          <CharString index="41">
            264 callgsubr
            -90 -91 vlineto
            138 callsubr
            131 hlineto
            -20 17 43 -42 84 hhcurveto
            110 58 66 86 38 -10 31 -17 23 hvcurveto
            return
          </CharString>
          <CharString index="42">
            632 -50 callsubr
            return
          </CharString>
          <CharString index="43">
            rmoveto
            -148 81 -149 -81 rlineto
            -102 vlineto
            149 84 148 -84 rlineto
            return
          </CharString>
          <CharString index="44">
            -60 -65 -76 callsubr
            return
          </CharString>
          <CharString index="45">
            -42 callsubr
            213 108 return
          </CharString>
          <CharString index="46">
            rmoveto
            -130 214 rlineto
            -129 hlineto
            126 -214 rlineto
            return
          </CharString>
          <CharString index="47">
            rmoveto
            -202 -154 -148 -209 -209 154 -147 203 186 127 130 142 28 hvcurveto
            122 -378 -107 240 vlineto
            -99 -21 -69 -62 -108 253 callgsubr
            88 142 139 87 89 125 74 58 -31 -59 32 hvcurveto
            161 hlineto
            140 -45 -124 79 -156 hhcurveto
            return
          </CharString>
          <CharString index="48">
            -52 -32 38 54 hvcurveto
            272 166 -272 vlineto
            -54 -29 -38 -53 vhcurveto
            return
          </CharString>
          <CharString index="49">
            140 35 350 rmoveto
            -209 153 -147 201 155 126 82 144 47 vhcurveto
            -161 hlineto
            -68 -33 -60 -33 -75 hhcurveto
            -122 -87 90 141 142 87 89 122 75 60 -33 -67 33 hvcurveto
            161 hlineto
            143 -47 -126 83 -155 hhcurveto
            -201 -153 -148 -209 hvcurveto
            return
          </CharString>
          <CharString index="50">
            123 callsubr
            hvcurveto
            -96 callgsubr
            return
          </CharString>
          <CharString index="51">
            -64 -79 hvcurveto
            -21 108 21 vlineto
            return
          </CharString>
          <CharString index="52">
            632 vlineto
            endchar
          </CharString>
          <CharString index="53">
            -26 33 277 rmoveto
            -174 114 -112 160 138 93 78 118 30 vhcurveto
            -151 hlineto
            -50 -17 -36 -26 -58 hhcurveto
            -78 -52 58 108 108 52 59 78 58 37 -30 -47 16 hvcurveto
            151 hlineto
            124 -30 -93 72 -138 hhcurveto
            -160 -114 -112 -174 hvcurveto
            return
          </CharString>
          <CharString index="54">
            79 32 -49 -49 -56 -37 -39 -60 -61 -40 42 55 hvcurveto
            -121 hlineto
            -124 93 -84 138 123 82 76 118 12 -1 12 -2 13 vhcurveto
            117 -1 rlineto
            -287 return
          </CharString>
          <CharString index="55">
            -159 -126 -74 -173 239 callsubr
            64 47 96 hvcurveto
            return
          </CharString>
          <CharString index="56">
            117 hlineto
            -2 12 -2 12 14 vvcurveto
            53 31 34 51 49 29 -37 -46 -98 -90 -25 -103 vhcurveto
            return
          </CharString>
          <CharString index="57">
            111 108 return
          </CharString>
          <CharString index="58">
            rmoveto
            -79 callgsubr
            363 -160 vlineto
            35 -26 -42 25 -63 hhcurveto
            -112 -82 -84 -120 -66 23 -55 39 -37 hvcurveto
            -34 246 callgsubr
            return
          </CharString>
          <CharString index="59">
            rmoveto
            -31 callsubr
            204 251 callgsubr
            return
          </CharString>
          <CharString index="60">
            vhcurveto
            -44 callgsubr
            return
          </CharString>
          <CharString index="61">
            535 rmoveto
            -73 -1 -50 -32 -28 -47 rrcurveto
            177 389 -63 vlineto
            -69 -23 -44 -53 -21 vhcurveto
            -27 59 -53 42 -82 -1 rrcurveto
            -397 -350 -100 callgsubr
            755 16 rmoveto
            -107 -61 31 callgsubr
            return
          </CharString>
          <CharString index="62">
            -73 callsubr
            507 -124 rmoveto
            -100 -61 52 92 -4 hvcurveto
            124 12 39 76 113 vvcurveto
            86 177 278 callsubr
            -684 -95 rmoveto
            -79 callgsubr
            531 -63 vlineto
            -81 -14 -50 -61 -17 vhcurveto
            67 -33 -68 41 -92 hhcurveto
            -130 -94 -24 callgsubr
            1098 526 -84 callgsubr
            -1464 -78 callgsubr
            72 60 25 46 37 hvcurveto
            -63 41 65 -34 95 hhcurveto
            95 67 35 52 40 hvcurveto
            -180 55 callsubr
          </CharString>
          <CharString index="63">
            -108 842 -76 vlineto
            -84 -41 -59 -107 -2 vhcurveto
            61 -40 -80 27 -99 hhcurveto
            -172 hlineto
            -94 callsubr
            27 hlineto
            86 33 -40 -47 hvcurveto
            -95 -13 callgsubr
            return
          </CharString>
          <CharString index="64">
            48 callsubr
            -179 return
          </CharString>
          <CharString index="65">
            83 callsubr
            76 -79 30 hvcurveto
            115 return
          </CharString>
          <CharString index="66">
            129 208 callgsubr
            return
          </CharString>
          <CharString index="67">
            46 -36 36 -49 -51 -36 -36 -46 -46 36 -36 51 49 36 36 46 vhcurveto
            return
          </CharString>
          <CharString index="68">
            115 callsubr
            141 return
          </CharString>
          <CharString index="69">
            -93 callsubr
            178 183 hlineto
            endchar
          </CharString>
          <CharString index="70">
            hhcurveto
            -50 -82 52 hlineto
            77 44 -4 -141 80 hvcurveto
            65 -82 -28 1 -96 hhcurveto
            -47 -81 50 hlineto
            return
          </CharString>
          <CharString index="71">
            -260 vlineto
            -15 callgsubr
            260 return
          </CharString>
          <CharString index="72">
            vlineto
            148 116 74 157 141 -90 78 -131 return
          </CharString>
          <CharString index="73">
            8 248 243 rmoveto
            -243 140 243 vlineto
            236 455 rlineto
            -156 hlineto
            -149 -319 -150 319 rlineto
            -158 hlineto
            return
          </CharString>
          <CharString index="74">
            40 102 -20 hlineto
            -99 -50 54 86 92 51 48 88 74 27 -31 -30 12 hvcurveto
            -148 12 95 -94 161 hhcurveto
            95 68 35 52 39 hvcurveto
            -180 128 -55 callsubr
          </CharString>
          <CharString index="75">
            -84 callgsubr
            -610 -108 364 -17 callsubr
            return
          </CharString>
          <CharString index="76">
            -48 -37 23 callgsubr
            -54 vhcurveto
            return
          </CharString>
          <CharString index="77">
            rmoveto
            230 -105 rlineto
            100 vlineto
            -230 119 rlineto
            return
          </CharString>
          <CharString index="78">
            229 callsubr
            -594 -79 rmoveto
            -79 callgsubr
            654 -172 -75 vlineto
            -51 -44 -12 -23 -34 hvcurveto
            66 -33 -69 38 -91 hhcurveto
            -130 -88 -24 callgsubr
            1190 526 -84 callgsubr
            -1556 -78 callgsubr
            57 48 16 29 36 hvcurveto
            -55 32 59 -33 82 hhcurveto
            131 67 41 callgsubr
          </CharString>
          <CharString index="79">
            31 -56 callsubr
            return
          </CharString>
          <CharString index="80">
            98 -77 118 61 50 22 38 29 vhcurveto
            87 callsubr
          </CharString>
          <CharString index="81">
            -83 499 158 -19 callsubr
            return
          </CharString>
          <CharString index="82">
            22 35 13 45 52 vvcurveto
            return
          </CharString>
          <CharString index="83">
            16 -126 -14 vlineto
            251 callsubr
            -70 -26 221 callgsubr
            58 -35 callsubr
            return
          </CharString>
          <CharString index="84">
            -126 -101 -70 -136 return
          </CharString>
          <CharString index="85">
            vvcurveto
            48 callgsubr
            vhcurveto
            177 callsubr
            endchar
          </CharString>
          <CharString index="86">
            9 12 1 1 13 return
          </CharString>
          <CharString index="87">
            872 1521 -72 callsubr
            -1542 -108 1303 -140 -270 -166 vlineto
            -61 -32 -40 -56 -50 -35 37 62 vhcurveto
            12 vlineto
            126 -97 69 -109 -101 -52 -60 -65 -24 vhcurveto
            82 callsubr
            64 31 -47 -72 3 vhcurveto
            -113 6 73 -74 134 hhcurveto
            133 81 89 126 hvcurveto
            191 callgsubr
            return
          </CharString>
          <CharString index="88">
            -38 callgsubr
            -103 6 97 -81 139 hhcurveto
            135 83 72 95 hvcurveto
            return
          </CharString>
          <CharString index="89">
            59 callsubr
            -1307 -108 549 -84 vlineto
            -89 46 -42 57 -12 vhcurveto
            -3 vlineto
            -58 -16 -44 -38 -14 -59 -17 -51 -49 -41 -65 -1 rrcurveto
            -68 -56 38 71 17 callgsubr
            -129 105 -68 122 2 vhcurveto
            68 1 56 24 41 42 return
          </CharString>
          <CharString index="90">
            -92 -88 vlineto
            -96 -86 -42 -105 -128 265 callgsubr
            hvcurveto
            -93 callsubr
            178 183 hlineto
            return
          </CharString>
          <CharString index="91">
            -96 62 -52 63 -17 vhcurveto
            -4 vlineto
            -54 -11 -63 -46 -87 vvcurveto
            return
          </CharString>
          <CharString index="92">
            268 -8 callsubr
            return
          </CharString>
          <CharString index="93">
            -9 callsubr
            108 -57 return
          </CharString>
          <CharString index="94">
            237 callgsubr
            3 281 callgsubr
            72 115 vvcurveto
            77 168 -260 vlineto
            -100 -71 -71 -104 -75 callsubr
            return
          </CharString>
          <CharString index="95">
            49 callgsubr
            vlineto
            return
          </CharString>
          <CharString index="96">
            -115 -108 111 190 callsubr
            return
          </CharString>
          <CharString index="97">
            48 -14 38 -21 29 return
          </CharString>
          <CharString index="98">
            -57 callsubr
            -105 -76 -68 -104 -16 callsubr
            -123 return
          </CharString>
          <CharString index="99">
            185 -48 callsubr
            return
          </CharString>
          <CharString index="100">
            rmoveto
            44 -34 34 -44 -44 -34 -34 -44 -43 34 -34 44 44 34 316 callgsubr
          </CharString>
          <CharString index="101">
            40 101 -20 hlineto
            -99 -50 return
          </CharString>
          <CharString index="102">
            rmoveto
            -107 -62 163 callgsubr
            122 302 callsubr
            166 279 callsubr
            303 -201 106 callsubr
            -691 -108 156 153 callgsubr
            -1 -19 -18 vvcurveto
            -2 vlineto
            0 vlineto
            -106 1 -57 -75 -114 hhcurveto
            -66 -57 callsubr
            -22 246 callsubr
            return
          </CharString>
          <CharString index="103">
            131 hlineto
            34 callgsubr
            return
          </CharString>
          <CharString index="104">
            vvcurveto
            -79 68 -32 72 32 31 6 9 26 vhcurveto
            53 callsubr
            return
          </CharString>
          <CharString index="105">
            vvcurveto
            121 callsubr
            vhcurveto
            58 136 vlineto
            -155 10 94 -99 163 hhcurveto
            94 -77 callgsubr
          </CharString>
          <CharString index="106">
            -86 -43 181 callsubr
            -81 return
          </CharString>
          <CharString index="107">
            -58 -26 44 58 vhcurveto
            return
          </CharString>
          <CharString index="108">
            rmoveto
            -110 hlineto
            -53 -35 -48 -80 -82 -33 48 53 vhcurveto
            -111 hlineto
            -110 69 -87 157 156 69 87 110 vhcurveto
            endchar
          </CharString>
          <CharString index="109">
            0 callgsubr
            -105 -76 -68 -104 -16 callsubr
            return
          </CharString>
          <CharString index="110">
            rmoveto
            -40 callsubr
            return
          </CharString>
          <CharString index="111">
            -84 callgsubr
            -691 -108 399 -85 -27 vlineto
            -166 -126 -93 -178 -129 75 -90 110 -38 hvcurveto
            -133 -156 rlineto
            -4 callsubr
            -125 145 rlineto
            104 24 59 69 97 vvcurveto
            86 callsubr
          </CharString>
          <CharString index="112">
            -44 -35 16 43 49 46 12 42 hvcurveto
            181 183 return
          </CharString>
          <CharString index="113">
            260 callgsubr
            -2 -19 -2 -19 -18 vvcurveto
            return
          </CharString>
          <CharString index="114">
            rmoveto
            -64 -53 -44 -71 -71 53 -44 64 65 52 44 71 71 -52 44 -65 hvcurveto
            -165 vmoveto
            -26 -22 21 29 31 22 19 26 26 22 -19 -31 -29 -22 -21 -26 hvcurveto
            return
          </CharString>
          <CharString index="115">
            44 854 -72 callsubr
            -875 27 callsubr
            197 225 rlineto
            0 vlineto
            10 12 9 13 8 14 rrcurveto
            -5 20 22 98 callsubr
            return
          </CharString>
          <CharString index="116">
            301 vlineto
            65 2 33 65 80 hhcurveto
            67 47 -50 -71 -76 -48 -44 -63 -10 -12 1 3 -9 hvcurveto
            -102 vlineto
            -5 22 20 -2 24 hhcurveto
            119 88 83 145 130 -79 99 -126 -75 -52 -34 -49 -28 hvcurveto
            173 439 108 return
          </CharString>
          <CharString index="117">
            -419 711 rmoveto
            38 vlineto
            80 36 89 220 223 34 -89 -80 vhcurveto
            -9 -11 callsubr
            -111 return
          </CharString>
          <CharString index="118">
            -84 callgsubr
            -610 52 callgsubr
            4 -85 50 -60 81 -29 -131 -153 rcurveline
            -4 callsubr
            -129 149 rlineto
            77 26 40 57 76 vvcurveto
            130 -104 43 -101 vhcurveto
            250 callgsubr
            endchar
          </CharString>
          <CharString index="119">
            rmoveto
            -480 vlineto
            -317 480 rlineto
            -140 -699 140 479 hlineto
            317 -479 rlineto
            140 699 hlineto
            return
          </CharString>
          <CharString index="120">
            266 callsubr
            -745 -108 630 hlineto
            147 callsubr
            -584 vlineto
            174 callgsubr
            68 121 48 -15 38 -20 29 hvcurveto
            155 hlineto
            -11 -24 -6 -28 -32 vvcurveto
            115 callgsubr
            131 71 82 138 vhcurveto
            return
          </CharString>
          <CharString index="121">
            1011 rmoveto
            -104 hlineto
            -54 -41 -51 -80 -82 -41 51 54 vhcurveto
            -103 hlineto
            -116 77 -81 149 148 77 81 116 vhcurveto
            -172 27 rmoveto
            29 -23 24 -31 -29 -24 -24 -29 -30 24 -24 29 31 23 24 30 vhcurveto
            endchar
          </CharString>
          <CharString index="122">
            hhcurveto
            71 52 25 42 33 hvcurveto
            102 callsubr
          </CharString>
          <CharString index="123">
            -108 105 -84 vlineto
            -89 46 -42 57 -12 vhcurveto
            -3 vlineto
            -71 -20 -50 -52 -86 vvcurveto
            return
          </CharString>
          <CharString index="124">
            -108 107 -58 vlineto
            -89 45 -41 58 -13 vhcurveto
            -3 vlineto
            -60 -14 -57 -51 -82 vvcurveto
            return
          </CharString>
          <CharString index="125">
            -94 711 rmoveto
            69 vlineto
            57 15 72 80 78 15 -72 -57 vhcurveto
            -40 -11 callsubr
            -111 return
          </CharString>
          <CharString index="126">
            -3 hlineto
            80 -41 -69 43 -90 hhcurveto
            -126 -101 -90 -142 -139 101 -90 127 94 74 49 76 30 hvcurveto
            return
          </CharString>
          <CharString index="127">
            -108 520 -170 vlineto
            47 -30 -52 33 -78 203 callsubr
            173 189 7 8 7 8 6 9 rlinecurve
            -168 vlineto
            -346 60 -25 callgsubr
            225 125 rmoveto
            -71 86 callgsubr
            53 48 69 82 39 -62 -61 -59 -39 -65 -82 hvcurveto
            endchar
          </CharString>
          <CharString index="128">
            -145 441 554 rmoveto
            -402 -115 241 hlineto
            -242 -326 rlineto
            -113 406 115 -247 vlineto
            244 326 rlineto
            return
          </CharString>
          <CharString index="129">
            43 callsubr
            177 callsubr
            return
          </CharString>
          <CharString index="130">
            129 54 callgsubr
            return
          </CharString>
          <CharString index="131">
            rmoveto
            -72 -188 rlineto
            88 hlineto
            100 188 rlineto
            69 hmoveto
            -82 -188 rlineto
            89 hlineto
            109 188 rlineto
            endchar
          </CharString>
          <CharString index="132">
            44 854 -72 callsubr
            -875 -108 260 -93 vlineto
            -102 -52 -36 -85 vhcurveto
            -30 -137 hlineto
            -172 106 -97 164 109 77 57 74 41 vhcurveto
            -5 20 21 98 callsubr
            return
          </CharString>
          <CharString index="133">
            -29 55 537 rmoveto
            137 hlineto
            46 5 29 44 68 hhcurveto
            64 35 -34 -57 -72 -60 -23 -82 hvcurveto
            -29 -115 29 hlineto
            104 52 -30 -82 -58 -36 -44 -70 -75 -42 45 63 -3 hvcurveto
            -136 hlineto
            -153 6 109 -72 144 hhcurveto
            153 84 88 119 99 -49 60 -74 23 hvcurveto
            4 vlineto
            53 18 57 56 91 vvcurveto
            108 -80 85 -150 -140 -96 -74 -135 -7 vhcurveto
            endchar
          </CharString>
          <CharString index="134">
            -108 260 -93 vlineto
            -102 -52 -36 -85 vhcurveto
            -30 -137 hlineto
            -163 99 -95 156 -6 vhcurveto
            -121 -131 rlineto
            -7 138 vlineto
            return
          </CharString>
          <CharString index="135">
            38 callsubr
            -1382 -78 callgsubr
            60 50 17 33 36 hvcurveto
            -59 35 61 -35 83 hhcurveto
            76 58 31 52 34 hvcurveto
            -158 vlineto
            -134 178 rmoveto
            -78 -55 52 81 79 57 52 76 91 72 callsubr
            -91 vhcurveto
            return
          </CharString>
          <CharString index="136">
            -45 callgsubr
            hlineto
            return
          </CharString>
          <CharString index="137">
            -12 callsubr
            -154 return
          </CharString>
          <CharString index="138">
            -171 vlineto
            89 callgsubr
            return
          </CharString>
          <CharString index="139">
            88 118 -65 hlineto
            -44 -15 16 37 hvcurveto
            268 124 115 -124 137 -141 -137 -66 -115 66 vlineto
            endchar
          </CharString>
          <CharString index="140">
            hhcurveto
            68 callgsubr
          </CharString>
          <CharString index="141">
            -60 -38 -37 -62 -81 vvcurveto
            -134 90 -94 151 132 87 76 104 12 vhcurveto
            return
          </CharString>
          <CharString index="142">
            -37 callsubr
            106 7 -3 -75 110 hvcurveto
            return
          </CharString>
          <CharString index="143">
            -2 85 205 rmoveto
            -107 8 74 -99 155 hhcurveto
            193 55 134 248 231 -61 134 -198 -154 -92 -96 -146 -154 101 -79 126 64 59 25 43 31 hvcurveto
            -164 -36 -61 -82 -65 -37 33 58 -11 vhcurveto
            106 180 rmoveto
            -85 -37 54 66 73 44 49 73 71 46 -44 -80 -71 -42 -47 -70 hvcurveto
            endchar
          </CharString>
          <CharString index="144">
            rmoveto
            -48 -36 32 53 53 124 callsubr
            72 -64 hlineto
            -64 -31 -41 -54 vhcurveto
            return
          </CharString>
          <CharString index="145">
            632 110 108 return
          </CharString>
          <CharString index="146">
            68 58 -38 -75 -58 -37 -45 -68 -61 -50 38 66 -7 hvcurveto
            -120 -282 125 138 hlineto
            -38 31 54 -28 68 hhcurveto
            104 79 69 110 67 -29 47 -44 29 hvcurveto
            return
          </CharString>
          <CharString index="147">
            -108 370 161 callgsubr
            58 50 -20 -62 -41 -30 -35 -61 -67 -40 38 57 -5 hvcurveto
            -116 -256 122 return
          </CharString>
          <CharString index="148">
            7 23 5 24 26 vvcurveto
            116 -73 62 -86 -75 -42 -45 -48 -17 vhcurveto
            -3 hlineto
            48 -17 -38 45 -73 hhcurveto
            -89 -75 -60 -118 -109 66 -76 122 5 10 0 1 10 hvcurveto
            88 vlineto
            -2 -6 -10 0 -5 hhcurveto
            -55 -36 35 62 53 27 37 51 52 22 -46 -57 hvcurveto
            -18 84 18 vlineto
            57 23 46 53 48 24 -38 -51 return
          </CharString>
          <CharString index="149">
            rmoveto
            102 hlineto
            21 4 14 12 25 hhcurveto
            26 15 -14 -22 -26 -18 -12 -29 hvcurveto
            -31 -57 35 hlineto
            29 19 -14 -25 -25 -18 -14 -25 -25 -16 12 26 -4 hvcurveto
            -108 hlineto
            -71 4 54 -45 100 hhcurveto
            90 63 42 58 42 -28 27 -41 12 hvcurveto
            3 vlineto
            38 9 26 25 42 vvcurveto
            59 -61 46 -85 -99 -53 -49 -62 -3 vhcurveto
            endchar
          </CharString>
          <CharString index="150">
            112 92 67 122 -10 callsubr
            hvcurveto
            return
          </CharString>
          <CharString index="151">
            50 79 callgsubr
            return
          </CharString>
          <CharString index="152">
            -108 597 -104 vlineto
            -65 -18 -38 -49 -18 -52 rrcurveto
            -3 hlineto
            65 -22 -52 62 -98 131 callgsubr
            -81 -156 -149 88 -101 163 9 12 0 1 13 hvcurveto
            98 callgsubr
            -10 -11 99 callsubr
            -48 49 87 -2 callgsubr
            -65 -78 hvcurveto
            -25 108 25 vlineto
            80 32 63 74 66 35 -53 -69 return
          </CharString>
          <CharString index="153">
            87 269 callsubr
            vhcurveto
            212 callsubr
            -75 -52 -34 -49 -28 vhcurveto
            173 360 108 -938 -105 callgsubr
            vlineto
            return
          </CharString>
          <CharString index="154">
            35 callsubr
            -121 -108 111 -632 hlineto
            return
          </CharString>
          <CharString index="155">
            67 35 51 40 hvcurveto
            return
          </CharString>
          <CharString index="156">
            230 callsubr
            96 -111 173 94 67 35 51 40 vhcurveto
            226 callgsubr
          </CharString>
          <CharString index="157">
            193 842 -72 callsubr
            -863 101 callgsubr
            149 rlineto
            156 37 91 106 152 vvcurveto
            return
          </CharString>
          <CharString index="158">
            93 hlineto
            -2 5 -1 7 6 vvcurveto
            38 30 25 36 42 30 -31 -43 -67 -62 -40 -81 -124 -68 78 103 124 90 62 118 vhcurveto
            108 174 hlineto
            return
          </CharString>
          <CharString index="159">
            -108 256 -23 callgsubr
            return
          </CharString>
          <CharString index="160">
            -12 callgsubr
            47 24 return
          </CharString>
          <CharString index="161">
            -95 553 -72 callsubr
            -574 -108 347 -69 vlineto
            -92 -43 -52 -110 vhcurveto
            -103 -212 150 callsubr
            82 125 5 0 7 -1 9 vhcurveto
            -124 -25 hlineto
            -55 198 callgsubr
            113 22 vlineto
            173 62 102 147 hvcurveto
            69 vlineto
            return
          </CharString>
          <CharString index="162">
            129 -55 callsubr
          </CharString>
          <CharString index="163">
            16 91 731 rmoveto
            -428 134 vlineto
            45 15 37 32 58 hhcurveto
            79 41 -45 -82 -77 -37 -58 -82 -68 -41 37 51 -12 hvcurveto
            -136 hlineto
            -119 12 90 -87 157 hhcurveto
            166 86 106 149 113 -58 128 -170 -61 -55 -26 -33 -27 hvcurveto
            171 324 123 vlineto
            endchar
          </CharString>
          <CharString index="164">
            140 325 hlineto
            153 -92 84 -129 -71 -60 -30 -47 -36 vhcurveto
            69 178 callsubr
            306 vlineto
            176 callgsubr
            return
          </CharString>
          <CharString index="165">
            -169 hlineto
            66 callgsubr
            return
          </CharString>
          <CharString index="166">
            -79 callsubr
            441 499 -84 callgsubr
            return
          </CharString>
          <CharString index="167">
            295 callgsubr
            -141 -127 -67 -77 -105 -13 2 -14 2 -13 vhcurveto
            126 hlineto
            -2 13 -1 9 11 vvcurveto
            48 27 31 42 52 21 -38 -58 vhcurveto
            return
          </CharString>
          <CharString index="168">
            174 callsubr
            90 72 callsubr
            -90 vhcurveto
            endchar
          </CharString>
          <CharString index="169">
            155 callsubr
            283 callgsubr
            hlineto
            return
          </CharString>
          <CharString index="170">
            266 callsubr
            -747 200 callgsubr
            hlineto
            -83 callgsubr
            146 vlineto
            -12 -24 -6 -29 -33 vvcurveto
            115 callgsubr
            131 71 82 138 vhcurveto
            return
          </CharString>
          <CharString index="171">
            865 345 140 callgsubr
            554 vlineto
            4 12 11 1 11 hhcurveto
            59 34 -39 -60 -95 -85 -35 -95 hvcurveto
            -42 hlineto
            77 -29 -74 44 -99 62 callgsubr
            return
          </CharString>
          <CharString index="172">
            rmoveto
            107 50 32 83 vhcurveto
            37 147 hlineto
            -77 -58 -37 -57 -35 hvcurveto
            86 257 callsubr
            return
          </CharString>
          <CharString index="173">
            -39 callgsubr
            381 vlineto
            -3 0 -3 -3 vvcurveto
            44 callgsubr
            vhcurveto
            -162 return
          </CharString>
          <CharString index="174">
            -77 144 callgsubr
            return
          </CharString>
          <CharString index="175">
            38 callsubr
            -1392 -108 661 -102 vlineto
            -78 -30 -39 -54 -14 vhcurveto
            59 -37 -72 39 -113 167 callsubr
            88 35 -45 -39 10 hvcurveto
            -35 vlineto
            return
          </CharString>
          <CharString index="176">
            hhcurveto
            -21 callsubr
            hvcurveto
            -88 callgsubr
            endchar
          </CharString>
          <CharString index="177">
            58 672 378 rmoveto
            40 -31 31 -40 -40 -31 -31 -40 -38 31 -32 40 40 31 32 38 vhcurveto
            return
          </CharString>
          <CharString index="178">
            187 callsubr
            39 179 callsubr
            hlineto
            return
          </CharString>
          <CharString index="179">
            43 -66 -66 hvcurveto
            -1 vlineto
            -62 -43 -69 return
          </CharString>
          <CharString index="180">
            197 callgsubr
            -310 hlineto
            -23 callsubr
            241 callgsubr
            hvcurveto
            141 hlineto
            -160 16 93 -102 156 hhcurveto
            94 -77 callgsubr
          </CharString>
          <CharString index="181">
            -24 17 44 -43 82 hhcurveto
            114 62 73 96 135 -104 41 -102 hvcurveto
            -44 hlineto
            5 callsubr
            return
          </CharString>
          <CharString index="182">
            22 callsubr
            endchar
          </CharString>
          <CharString index="183">
            rlineto
            -11 23 -7 24 23 vvcurveto
            50 25 31 44 41 23 -32 -40 -3 vhcurveto
            99 hlineto
            97 7 -50 74 -92 hhcurveto
            -94 -39 -63 -65 -8 hvcurveto
            185 -105 -43 10 -121 -37 callsubr
            return
          </CharString>
          <CharString index="184">
            248 callsubr
            -15 -36 hlineto
            -125 -81 -74 -120 -116 -52 65 79 -4 vhcurveto
            -6 callgsubr
            -23 -23 -3 -6 -21 hvcurveto
            -739 -108 return
          </CharString>
          <CharString index="185">
            45 callgsubr
            235 callsubr
            return
          </CharString>
          <CharString index="186">
            262 callsubr
            54 return
          </CharString>
          <CharString index="187">
            rrcurveto
            85 callgsubr
          </CharString>
          <CharString index="188">
            rmoveto
            -202 hlineto
            101 292 rlineto
            endchar
          </CharString>
          <CharString index="189">
            -106 callgsubr
            31 63 73 return
          </CharString>
          <CharString index="190">
            164 87 107 144 116 -55 return
          </CharString>
          <CharString index="191">
            -151 vlineto
            -146 164 rmoveto
            -84 -72 56 94 29 7 25 12 22 hvcurveto
            239 -191 rlineto
            -21 -25 -34 -14 -43 hhcurveto
            303 vmoveto
            99 227 callsubr
            -25 -11 -23 135 callsubr
            27 35 12 39 hhcurveto
            endchar
          </CharString>
          <CharString index="192">
            rmoveto
            -50 callsubr
            return
          </CharString>
          <CharString index="193">
            98 -66 69 -111 -95 -70 -50 -88 -11 2 -13 2 -12 vhcurveto
            120 callgsubr
          </CharString>
          <CharString index="194">
            -165 -26 callgsubr
          </CharString>
          <CharString index="195">
            -172 106 -97 164 return
          </CharString>
          <CharString index="196">
            rmoveto
            197 callsubr
            128 -65 callsubr
            -992 -108 260 -93 vlineto
            254 callgsubr
            108 76 56 72 42 vhcurveto
            -1 11 11 -1 11 hhcurveto
            return
          </CharString>
          <CharString index="197">
            203 callgsubr
            103 hlineto
            -5 -22 -3 -23 -24 vvcurveto
            -68 callsubr
          </CharString>
          <CharString index="198">
            70 113 vvcurveto
            77 167 -260 vlineto
            -100 -70 -71 return
          </CharString>
          <CharString index="199">
            -84 callgsubr
            hlineto
            23 3 12 14 21 hhcurveto
            21 15 -15 -25 -31 -23 -26 -39 -27 hvcurveto
            -114 -77 rlineto
            -80 287 85 -172 vlineto
            69 39 rlineto
            73 42 32 32 50 vvcurveto
            56 -48 56 -93 -94 -54 -48 -68 -4 vhcurveto
            endchar
          </CharString>
          <CharString index="200">
            89 313 698 rmoveto
            -244 -698 244 95 callgsubr
            -579 rmoveto
            461 99 vlineto
            147 83 -87 -145 -145 -83 -84 -147 hvcurveto
            return
          </CharString>
          <CharString index="201">
            293 58 callgsubr
            return
          </CharString>
          <CharString index="202">
            -43 rmoveto
            -109 57 -18 vlineto
            -42 -16 -20 263 callsubr
            return
          </CharString>
          <CharString index="203">
            -338 75 126 callgsubr
            return
          </CharString>
          <CharString index="204">
            163 callsubr
            -76 return
          </CharString>
          <CharString index="205">
            -2 22 hhcurveto
            125 97 75 131 128 -92 76 -130 -130 -94 -24 callgsubr
            -79 callgsubr
            vlineto
            return
          </CharString>
          <CharString index="206">
            -1 -6 hhcurveto
            -79 return
          </CharString>
          <CharString index="207">
            115 228 108 -1016 -108 663 -106 vlineto
            -67 -13 -53 -40 -33 -66 rrcurveto
            166 callsubr
            return
          </CharString>
          <CharString index="208">
            -108 347 -64 vlineto
            -93 -43 -52 -110 vhcurveto
            -103 -216 150 callsubr
            81 125 3 0 5 -1 7 vhcurveto
            -124 -19 hlineto
            -54 198 callgsubr
            118 return
          </CharString>
          <CharString index="209">
            -241 128 -55 callsubr
          </CharString>
          <CharString index="210">
            204 rmoveto
            -68 -51 29 61 48 33 37 77 hvcurveto
            52 104 -42 hlineto
            -79 -29 return
          </CharString>
          <CharString index="211">
            106 rmoveto
            -93 -52 60 83 hvcurveto
            52 vlineto
            97 8 71 64 140 vvcurveto
            119 362 -159 vlineto
            35 -26 -42 24 -62 hhcurveto
            -111 -82 -84 -120 -66 23 -54 39 -37 hvcurveto
            -35 246 callgsubr
            return
          </CharString>
          <CharString index="212">
            -5 -17 -3 -18 -20 vvcurveto
            -96 62 -52 63 -17 vhcurveto
            -4 vlineto
            return
          </CharString>
          <CharString index="213">
            rmoveto
            -65 callsubr
            return
          </CharString>
          <CharString index="214">
            -51 -32 -32 -56 -70 vvcurveto
            -108 72 -83 118 61 50 22 43 31 vhcurveto
            -127 119 563 -112 vlineto
            -66 -54 -35 -55 -68 -42 41 63 71 51 37 86 vhcurveto
            174 199 hlineto
            return
          </CharString>
          <CharString index="215">
            vvcurveto
            241 callgsubr
            vhcurveto
            141 hlineto
            -160 16 93 -102 156 hhcurveto
            94 -77 callgsubr
          </CharString>
          <CharString index="216">
            -91 callgsubr
            408 -319 128 -55 callsubr
          </CharString>
          <CharString index="217">
            -109 58 -19 vlineto
            -41 -17 -20 -33 252 callsubr
            41 51 86 32 -5 37 -12 40 hvcurveto
            endchar
          </CharString>
          <CharString index="218">
            -145 106 -98 138 79 60 32 48 32 return
          </CharString>
          <CharString index="219">
            292 callsubr
            hlineto
            133 callgsubr
            return
          </CharString>
          <CharString index="220">
            vvcurveto
            -146 112 -80 146 vhcurveto
            39 101 -18 hlineto
            -99 -51 53 return
          </CharString>
          <CharString index="221">
            -33 callgsubr
            hvcurveto
            -6 callsubr
            55 86 return
          </CharString>
          <CharString index="222">
            -124 73 -94 return
          </CharString>
          <CharString index="223">
            264 callgsubr
            -90 -91 hlineto
            138 callsubr
            hlineto
            return
          </CharString>
          <CharString index="224">
            268 204 rmoveto
            -49 -37 29 48 51 41 30 55 hvcurveto
            75 -54 hlineto
            -64 -28 -40 -57 vhcurveto
            return
          </CharString>
          <CharString index="225">
            rmoveto
            -97 callgsubr
            -17 253 rmoveto
            return
          </CharString>
          <CharString index="226">
            821 rmoveto
            60 38 38 55 60 31 -43 -48 vhcurveto
            88 hlineto
            106 7 -65 68 -104 hhcurveto
            -106 -49 -68 -71 -9 hvcurveto
            -81 115 -58 14 -114 1 rrcurveto
            -46 -105 49 hlineto
            return
          </CharString>
          <CharString index="227">
            176 callsubr
            54 70 113 vvcurveto
            77 167 -260 vlineto
            -100 return
          </CharString>
          <CharString index="228">
            191 callsubr
            139 return
          </CharString>
          <CharString index="229">
            hhcurveto
            95 67 35 51 39 hvcurveto
            -179 return
          </CharString>
          <CharString index="230">
            -64 23 63 51 41 31 72 return
          </CharString>
          <CharString index="231">
            40 31 57 hvcurveto
            return
          </CharString>
          <CharString index="232">
            -91 -5 vlineto
            -176 -114 -97 -161 return
          </CharString>
          <CharString index="233">
            -5 callgsubr
            272 callgsubr
            return
          </CharString>
          <CharString index="234">
            140 236 hlineto
            188 -236 rlineto
            182 hlineto
            -246 276 244 278 rlineto
            -182 hlineto
            -186 -235 rlineto
            421 -140 vlineto
            endchar
          </CharString>
          <CharString index="235">
            -664 rmoveto
            -97 callgsubr
            return
          </CharString>
          <CharString index="236">
            129 hlineto
            96 67 52 84 62 51 -31 -43 27 vhcurveto
            -377 -341 rlineto
            -6 168 vlineto
            218 215 rlineto
            -215 124 -55 callsubr
          </CharString>
          <CharString index="237">
            97 79 133 118 return
          </CharString>
          <CharString index="238">
            84 hmoveto
            142 439 97 115 -97 23 hlineto
            62 23 22 68 -2 vhcurveto
            118 vlineto
            -156 4 -77 -63 -136 vvcurveto
            -28 -63 -115 63 vlineto
            return
          </CharString>
          <CharString index="239">
            rmoveto
            -54 -32 41 64 hvcurveto
            12 vlineto
            107 -71 93 -125 -75 -50 -33 -48 -27 vhcurveto
            171 792 -140 -271 -162 vlineto
            -64 -31 -41 -56 vhcurveto
            return
          </CharString>
          <CharString index="240">
            -172 -76 vlineto
            -83 callgsubr
            149 -355 208 callsubr
            vlineto
            endchar
          </CharString>
          <CharString index="241">
            -698 370 111 -230 587 vlineto
            return
          </CharString>
          <CharString index="242">
            hvcurveto
            -237 191 rlineto
            22 return
          </CharString>
          <CharString index="243">
            -144 88 -107 return
          </CharString>
          <CharString index="244">
            30 callsubr
            78 -109 152 77 58 33 47 36 vhcurveto
            -52 34 58 -34 83 hhcurveto
            139 71 91 122 hvcurveto
            260 return
          </CharString>
          <CharString index="245">
            -97 -86 -43 -110 -106 86 -41 83 -4 hvcurveto
            59 hlineto
            73 35 -32 -50 -39 -28 -34 -60 -68 -38 38 49 -5 hvcurveto
            -116 -251 122 return
          </CharString>
          <CharString index="246">
            34 vhcurveto
            -158 127 38 callsubr
            -639 -108 402 return
          </CharString>
          <CharString index="247">
            hhcurveto
            94 175 callsubr
            return
          </CharString>
          <CharString index="248">
            rmoveto
            153 callsubr
            return
          </CharString>
          <CharString index="249">
            rmoveto
            -78 -57 282 callgsubr
            77 return
          </CharString>
          <CharString index="250">
            129 -65 callsubr
            return
          </CharString>
          <CharString index="251">
            rmoveto
            -107 -53 60 84 -11 hvcurveto
            124 13 55 92 105 vvcurveto
            77 166 -260 vlineto
            -100 -70 -71 -104 -75 callsubr
            return
          </CharString>
          <CharString index="252">
            165 callsubr
            93 callgsubr
            return
          </CharString>
          <CharString index="253">
            hhcurveto
            152 callgsubr
          </CharString>
          <CharString index="254">
            237 callsubr
            -13 2 -15 2 -11 vhcurveto
            130 hlineto
            -3 12 -1 11 11 vvcurveto
            49 28 31 41 48 20 -39 -57 vhcurveto
            -83 return
          </CharString>
          <CharString index="255">
            134 159 callgsubr
          </CharString>
          <CharString index="256">
            269 -274 vlineto
            -93 -72 -61 -90 vhcurveto
            402 428 -84 callgsubr
            return
          </CharString>
          <CharString index="257">
            hlineto
            -123 71 -93 140 128 75 return
          </CharString>
          <CharString index="258">
            165 107 105 157 hvcurveto
            -80 callgsubr
          </CharString>
          <CharString index="259">
            108 -238 -363 vlineto
            -111 -74 -74 -107 return
          </CharString>
          <CharString index="260">
            108 252 rlineto
            -147 303 callsubr
            return
          </CharString>
          <CharString index="261">
            vvcurveto
            105 -80 80 -133 -129 -80 -83 -109 return
          </CharString>
          <CharString index="262">
            -350 264 callsubr
            return
          </CharString>
          <CharString index="263">
            295 callgsubr
            -144 return
          </CharString>
          <CharString index="264">
            -37 callsubr
            107 6 -3 -78 114 hvcurveto
            return
          </CharString>
          <CharString index="265">
            224 callgsubr
            -57 -96 -6 vhcurveto
            69 -26 -57 49 -87 hhcurveto
            return
          </CharString>
          <CharString index="266">
            -109 hlineto
            -88 -60 -66 -102 -68 -51 29 61 48 33 37 77 vhcurveto
            309 callgsubr
            vlineto
            endchar
          </CharString>
          <CharString index="267">
            274 81 callgsubr
            return
          </CharString>
          <CharString index="268">
            300 callsubr
            endchar
          </CharString>
          <CharString index="269">
            7 7 0 7 hhcurveto
            return
          </CharString>
          <CharString index="270">
            -108 326 return
          </CharString>
          <CharString index="271">
            vhcurveto
            195 callgsubr
            -81 79 -118 -22 -21 -3 -6 -20 hvcurveto
            -880 -108 return
          </CharString>
          <CharString index="272">
            -104 callgsubr
            124 return
          </CharString>
          <CharString index="273">
            19 callsubr
            4 hlineto
            return
          </CharString>
          <CharString index="274">
            hhcurveto
            -153 -122 -80 -170 239 callsubr
            57 47 94 return
          </CharString>
          <CharString index="275">
            234 143 119 190 return
          </CharString>
          <CharString index="276">
            65 21 34 48 41 26 -32 -51 -2 vhcurveto
            113 hlineto
            115 5 -65 76 -121 hhcurveto
            -141 -45 -101 -107 hvcurveto
            return
          </CharString>
          <CharString index="277">
            283 -1 callgsubr
            return
          </CharString>
          <CharString index="278">
            -80 35 727 rmoveto
            -120 342 vlineto
            -268 -607 rlineto
            142 hlineto
            266 623 rlineto
            104 vlineto
            endchar
          </CharString>
          <CharString index="279">
            147 callgsubr
            -89 141 133 81 89 126 vhcurveto
            55 return
          </CharString>
          <CharString index="280">
            -1 10 11 -1 11 hhcurveto
            63 42 25 35 26 hvcurveto
            -181 vlineto
            return
          </CharString>
          <CharString index="281">
            178 142 callsubr
            return
          </CharString>
          <CharString index="282">
            -43 callsubr
            208 callsubr
            return
          </CharString>
          <CharString index="283">
            -60 66 95 262 callsubr
            return
          </CharString>
          <CharString index="284">
            192 callgsubr
            -5 callgsubr
            hlineto
            return
          </CharString>
          <CharString index="285">
            -140 -554 140 return
          </CharString>
          <CharString index="286">
            102 -367 -102 150 return
          </CharString>
          <CharString index="287">
            -57 201 callgsubr
            return
          </CharString>
          <CharString index="288">
            -59 -111 vhcurveto
            return
          </CharString>
          <CharString index="289">
            189 callgsubr
            endchar
          </CharString>
          <CharString index="290">
            118 rmoveto
            -129 68 -20 vlineto
            -46 -19 -18 -36 vhcurveto
            -61 vlineto
            95 45 57 95 38 -9 42 -13 42 hvcurveto
            return
          </CharString>
          <CharString index="291">
            vlineto
            174 callgsubr
            67 259 callsubr
            hvcurveto
            return
          </CharString>
          <CharString index="292">
            555 -112 vlineto
            -66 -55 -35 -55 -67 -43 41 63 71 52 37 86 vhcurveto
            173 199 hlineto
            endchar
          </CharString>
          <CharString index="293">
            vlineto
            -2 -13 -1 -14 -14 278 callgsubr
            return
          </CharString>
          <CharString index="294">
            66 48 45 70 hvcurveto
            return
          </CharString>
          <CharString index="295">
            -472 rmoveto
            -83 callsubr
            return
          </CharString>
          <CharString index="296">
            -43 rmoveto
            -109 57 -18 vlineto
            -42 -16 -20 -33 vhcurveto
            -57 vlineto
            83 41 52 86 32 -4 36 -12 40 hvcurveto
            return
          </CharString>
          <CharString index="297">
            -632 143 callsubr
            return
          </CharString>
          <CharString index="298">
            -117 -46 callgsubr
            return
          </CharString>
          <CharString index="299">
            -108 353 return
          </CharString>
          <CharString index="300">
            107 hlineto
            -9 28 -6 29 26 vvcurveto
            64 39 29 40 44 38 -40 -71 -131 -101 -73 -162 vhcurveto
            return
          </CharString>
          <CharString index="301">
            -118 hlineto
            -89 -69 -65 -101 -101 -71 58 103 vhcurveto
            0 vlineto
            120 10 55 70 113 vvcurveto
            77 return
          </CharString>
          <CharString index="302">
            122 callsubr
            208 callsubr
            return
          </CharString>
          <CharString index="303">
            253 callgsubr
            -76 -128 -65 return
          </CharString>
          <CharString index="304">
            63 42 24 36 26 hvcurveto
            -181 return
          </CharString>
          <CharString index="305">
            60 hlineto
            156 callsubr
            return
          </CharString>
          <CharString index="306">
            -98 -63 -47 -81 -54 28 -39 return
          </CharString>
          <CharString index="307">
            -17 -17 -1 -3 -16 return
          </CharString>
          <CharString index="308">
            557 632 rmoveto
            return
          </CharString>
          <CharString index="309">
            hhcurveto
            22 callsubr
            return
          </CharString>
          <CharString index="310">
            hhcurveto
            -130 -84 -93 -139 238 callgsubr
            hvcurveto
            -130 -137 rlineto
            139 hlineto
            return
          </CharString>
          <CharString index="311">
            392 283 rmoveto
            -78 -36 56 83 hvcurveto
            210 228 -224 vlineto
            -68 -38 -57 -76 vhcurveto
            return
          </CharString>
          <CharString index="312">
            174 295 rmoveto
            92 175 rlineto
            -133 hlineto
            -88 -175 88 -175 rlineto
            133 hlineto
            return
          </CharString>
          <CharString index="313">
            71 298 rmoveto
            424 118 -424 hlineto
            endchar
          </CharString>
          <CharString index="314">
            76 -84 callgsubr
            return
          </CharString>
          <CharString index="315">
            130 632 return
          </CharString>
          <CharString index="316">
            rmoveto
            84 171 -216 -207 vlineto
            23 35 13 45 52 vvcurveto
            412 84 -84 callgsubr
            return
          </CharString>
          <CharString index="317">
            -8 -23 -5 -25 -29 vvcurveto
            214 callgsubr
            vhcurveto
            return
          </CharString>
          <CharString index="318">
            -94 141 293 callsubr
            return
          </CharString>
          <CharString index="319">
            131 hlineto
            133 -79 99 -126 return
          </CharString>
          <CharString index="320">
            -140 98 -99 161 return
          </CharString>
          <CharString index="321">
            -598 rmoveto
            -97 callgsubr
            return
          </CharString>
          <CharString index="322">
            185 -100 callgsubr
            return
          </CharString>
          <CharString index="323">
            178 37 callsubr
            return
          </CharString>
          <CharString index="324">
            rmoveto
            80 59 52 78 91 44 -66 -67 -65 -44 -68 -91 -80 -57 52 82 vhcurveto
            396 return
          </CharString>
          <CharString index="325">
            rmoveto
            49 37 36 46 46 -37 36 -49 -50 -36 -36 -46 -46 36 -36 50 hvcurveto
            endchar
          </CharString>
          <CharString index="326">
            rmoveto
            -105 -71 -60 -76 -75 -71 58 105 105 71 58 75 76 71 -56 -105 vhcurveto
            endchar
          </CharString>
          <CharString index="327">
            -133 -309 return
          </CharString>
          <CharString index="328">
            -89 -41 61 89 hvcurveto
            115 vlineto
            254 -184 rlineto
            -48 -18 -42 -33 -64 hhcurveto
            return
          </CharString>
          <CharString index="329">
            516 744 hmoveto
            267 callsubr
            return
          </CharString>
          <CharString index="330" raw="1">
            fb00f85a aa0afb16 372efb1f 0b
          </CharString>
          <CharString index="331">
            89 175 -89 175 rlineto
            -132 hlineto
            91 -175 -91 -175 rlineto
            endchar
          </CharString>
          <CharString index="332">
            -140 87 -99 139 77 58 32 51 34 return
          </CharString>
          <CharString index="333">
            hmoveto
            38 callsubr
            return
          </CharString>
          <CharString index="334">
            54 -74 -78 -25 -6 return
          </CharString>
          <CharString index="335">
            -64 -32 -41 -56 return
          </CharString>
          <CharString index="336">
            rmoveto
            -48 -36 23 callgsubr
            -55 vhcurveto
            return
          </CharString>
          <CharString index="337">
            -23 callgsubr
            -171 return
          </CharString>
          <CharString index="338">
            1067 201 callsubr
            594 -171 hlineto
            89 callgsubr
            return
          </CharString>
          <CharString index="339">
            rmoveto
            6 6 5 7 5 6 rrcurveto
            -152 125 632 109 108 return
          </CharString>
          <CharString index="340">
            hlineto
            10 30 6 34 36 vvcurveto
            123 -61 78 -83 26 vhcurveto
            106 vlineto
            endchar
          </CharString>
          <CharString index="341">
            -54 vlineto
            -99 -47 304 callgsubr
            return
          </CharString>
          <CharString index="342">
            -3 199 callgsubr
            return
          </CharString>
          <CharString index="343">
            -25 -23 -3 -6 -21 vhcurveto
            return
          </CharString>
          <CharString index="344">
            -7 263 callgsubr
            return
          </CharString>
          <CharString index="345">
            254 callgsubr
            109 return
          </CharString>
          <CharString index="346">
            114 callsubr
            92 return
          </CharString>
          <CharString index="347">
            -43 284 callgsubr
            6 5 vvcurveto
            32 return
          </CharString>
          <CharString index="348">
            hhcurveto
            111 92 67 122 -10 callsubr
            hvcurveto
            192 callgsubr
            return
          </CharString>
          <CharString index="349">
            -54 vlineto
            -99 -46 260 callgsubr
            return
          </CharString>
          <CharString index="350">
            -34 -48 -29 hvcurveto
            172 440 108 return
          </CharString>
          <CharString index="351">
            133 81 89 126 vhcurveto
            20 73 vlineto
            return
          </CharString>
          <CharString index="352">
            1 -361 rlineto
            -149 81 -103 169 return
          </CharString>
          <CharString index="353">
            -22 296 callsubr
            return
          </CharString>
          <CharString index="354">
            19 -124 -13 vlineto
            -54 -30 -39 -54 -57 -26 44 58 vhcurveto
            116 return
          </CharString>
          <CharString index="355">
            108 -706 -108 172 234 callsubr
            return
          </CharString>
          <CharString index="356">
            623 hmoveto
            301 vlineto
            65 2 33 65 80 hhcurveto
            68 46 -50 -71 return
          </CharString>
          <CharString index="357">
            -107 hlineto
            -71 -42 -60 -79 -87 -38 58 87 vhcurveto
            204 vlineto
            endchar
          </CharString>
          <CharString index="358">
            -60 -33 -41 -57 return
          </CharString>
          <CharString index="359">
            vhcurveto
            -57 vlineto
            84 return
          </CharString>
          <CharString index="360">
            71 vvcurveto
            101 -79 77 -130 -127 -77 -80 -98 -84 52 -60 return
          </CharString>
          <CharString index="361">
            308 callgsubr
            263 callsubr
            return
          </CharString>
          <CharString index="362">
            159 301 callgsubr
            return
          </CharString>
          <CharString index="363">
            186 311 rmoveto
            79 58 52 77 return
          </CharString>
          <CharString index="364">
            178 callsubr
            vlineto
            return
          </CharString>
          <CharString index="365">
            131 hlineto
            252 callgsubr
            return
          </CharString>
          <CharString index="366">
            122 181 callgsubr
            return
          </CharString>
          <CharString index="367">
            -60 163 callgsubr
            return
          </CharString>
          <CharString index="368">
            hlineto
            241 hmoveto
            108 return
          </CharString>
          <CharString index="369">
            hvcurveto
            0 vlineto
            121 10 return
          </CharString>
          <CharString index="370">
            -34 252 callsubr
            return
          </CharString>
          <CharString index="371">
            69 hmoveto
            140 return
          </CharString>
          <CharString index="372">
            -108 vlineto
            endchar
          </CharString>
          <CharString index="373">
            198 callsubr
            236 callsubr
            return
          </CharString>
          <CharString index="374">
            632 181 190 callsubr
            return
          </CharString>
          <CharString index="375">
            rmoveto
            -262 192 rlineto
            262 hlineto
            238 hmoveto
            108 return
          </CharString>
          <CharString index="376">
            557 hmoveto
            298 callgsubr
            return
          </CharString>
          <CharString index="377">
            rmoveto
            632 109 108 -241 297 callsubr
          </CharString>
          <CharString index="378">
            rlineto
            140 hlineto
            return
          </CharString>
          <CharString index="379">
            -116 83 -77 return
          </CharString>
          <CharString index="380">
            rmoveto
            101 -20 vlineto
            -99 -50 55 86 92 64 47 96 hvcurveto
            return
          </CharString>
          <CharString index="381">
            1 rrcurveto
            -46 -105 49 hlineto
            92 28 -15 -137 87 hvcurveto
            return
          </CharString>
          <CharString index="382">
            21 vlineto
            80 32 63 75 69 35 -54 -71 -82 -47 -54 return
          </CharString>
          <CharString index="383">
            50 586 rmoveto
            95 hlineto
            12 212 rlineto
            -120 hlineto
            return
          </CharString>
          <CharString index="384">
            -54 vlineto
            -83 -47 -40 -113 vhcurveto
            return
          </CharString>
          <CharString index="385">
            -260 vlineto
            -100 -71 -71 -104 vhcurveto
            return
          </CharString>
          <CharString index="386">
            -260 vlineto
            -100 -70 -71 -103 vhcurveto
            return
          </CharString>
          <CharString index="387">
            232 -203 rmoveto
            return
          </CharString>
          <CharString index="388">
            -108 397 -91 return
          </CharString>
          <CharString index="389">
            -34 -57 32 -77 hhcurveto
            return
          </CharString>
          <CharString index="390">
            -87 -91 -126 return
          </CharString>
          <CharString index="391">
            327 311 callgsubr
            return
          </CharString>
          <CharString index="392">
            298 callgsubr
            -76 return
          </CharString>
          <CharString index="393">
            200 callsubr
            hvcurveto
            -25 11 -16 20 27 vvcurveto
            return
          </CharString>
          <CharString index="394">
            66 callgsubr
            -137 -89 -97 -135 return
          </CharString>
          <CharString index="395">
            310 callgsubr
            152 return
          </CharString>
          <CharString index="396">
            110 108 -619 -108 382 -168 return
          </CharString>
          <CharString index="397">
            hvcurveto
            133 -383 -5 callgsubr
            hlineto
            endchar
          </CharString>
          <CharString index="398">
            -91 -55 vlineto
            -150 -103 return
          </CharString>
          <CharString index="399">
            -108 454 -171 return
          </CharString>
          <CharString index="400">
            130 76 77 120 return
          </CharString>
          <CharString index="401">
            -112 161 return
          </CharString>
          <CharString index="402">
            58 42 40 60 return
          </CharString>
          <CharString index="403">
            -3 -6 -19 vhcurveto
            return
          </CharString>
          <CharString index="404">
            -740 vlineto
            endchar
          </CharString>
          <CharString index="405">
            hlineto
            27 40 14 50 55 vvcurveto
            64 vlineto
            endchar
          </CharString>
          <CharString index="406">
            82 39 -62 -61 -59 -40 -65 -82 hvcurveto
            endchar
          </CharString>
          <CharString index="407">
            140 740 -140 hlineto
            return
          </CharString>
          <CharString index="408">
            hvcurveto
            72 -66 hlineto
            -63 -30 -41 return
          </CharString>
          <CharString index="409">
            10 54 70 113 vvcurveto
            77 return
          </CharString>
          <CharString index="410">
            hlineto
            -57 -252 rlineto
            return
          </CharString>
          <CharString index="411">
            -108 371 return
          </CharString>
          <CharString index="412">
            hhcurveto
            62 42 24 34 26 hvcurveto
            -179 vlineto
            return
          </CharString>
          <CharString index="413">
            211 callsubr
            vhcurveto
            return
          </CharString>
          <CharString index="414">
            rmoveto
            -268 hlineto
            21 34 11 43 50 vvcurveto
            return
          </CharString>
          <CharString index="415">
            -98 -90 -50 -124 -36 6 -34 10 -27 return
          </CharString>
          <CharString index="416">
            -7 -43 -57 -82 hhcurveto
            -78 -57 52 81 hvcurveto
            return
          </CharString>
          <CharString index="417">
            -134 107 -48 102 33 37 5 10 30 return
          </CharString>
          <CharString index="418">
            283 rmoveto
            -81 -35 58 87 hvcurveto
            204 return
          </CharString>
          <CharString index="419">
            rmoveto
            -60 -50 29 61 48 33 37 77 hvcurveto
            return
          </CharString>
          <CharString index="420">
            -84 callgsubr
            -696 265 callsubr
          </CharString>
          <CharString index="421">
            hvcurveto
            122 hlineto
            return
          </CharString>
          <CharString index="422">
            -2 -13 -1 -14 return
          </CharString>
        <CharString name=".notdef">
          -128 0 vmoveto
          500 700 -500 hlineto
          250 -305 rmoveto
          -170 255 rlineto
          340 hlineto
          -140 -300 rmoveto
          170 255 rlineto
          -510 vlineto
          -370 -45 rmoveto
          170 255 170 -255 rlineto
          -370 555 rmoveto
          170 -255 -170 -255 rlineto
          endchar
        </CharString>
        <CharString name="A">
          -62 callgsubr
          -38 112 81 callsubr
        </CharString>
        <CharString name="AE">
          309 476 597 94 callgsubr
        </CharString>
        <CharString name="Aacute">
          -62 callgsubr
          -260 705 -65 callgsubr
          -8 -712 81 callsubr
        </CharString>
        <CharString name="Abreve">
          -62 callgsubr
          21 764 -80 callsubr
          -59 -652 81 callsubr
        </CharString>
        <CharString name="Acircumflex">
          -62 callgsubr
          10 707 -64 callsubr
          -48 -493 81 callsubr
        </CharString>
        <CharString name="Adieresis">
          -62 callgsubr
          -232 632 rmoveto
          -99 callgsubr
          185 hmoveto
          -99 callgsubr
          9 -520 81 callsubr
        </CharString>
        <CharString name="Agrave">
          -62 callgsubr
          -260 710 -30 callsubr
          222 -712 81 callsubr
        </CharString>
        <CharString name="Amacron">
          -62 callgsubr
          -330 644 rmoveto
          382 100 -382 hlineto
          292 -632 81 callsubr
        </CharString>
        <CharString name="Aogonek">
          88 277 699 rmoveto
          -251 -699 rlineto
          147 hlineto
          46 133 rlineto
          278 hlineto
          43 -123 rlineto
          -49 -36 -18 -36 -40 vvcurveto
          -80 68 -32 72 32 32 6 9 25 vhcurveto
          84 vlineto
          -10 -25 -25 -5 -20 hhcurveto
          -31 -19 16 25 22 13 20 48 23 hvcurveto
          48 24 -251 699 rlineto
          19 -454 81 callsubr
        </CharString>
        <CharString name="Aring">
          -62 callgsubr
          -138 679 rmoveto
          -26 -22 21 29 31 22 19 26 26 22 -19 -31 -29 -22 -21 -26 hvcurveto
          165 vmoveto
          -64 -53 -44 -71 -71 53 -44 64 65 52 44 71 71 -52 44 -65 hvcurveto
          100 -732 81 callsubr
        </CharString>
        <CharString name="Atilde">
          -62 callgsubr
          -319 619 -96 callsubr
          281 -507 81 callsubr
        </CharString>
        <CharString name="B">
          15 458 206 rmoveto
          -59 -40 -33 -68 vhcurveto
          -141 188 138 hlineto
          68 43 -36 -60 hvcurveto
          -17 291 rmoveto
          -57 -38 -30 -66 vhcurveto
          -128 175 128 hlineto
          66 38 -32 -56 hvcurveto
          159 -308 rmoveto
          82 -56 73 -79 14 vhcurveto
          68 22 51 53 85 vvcurveto
          104 -81 76 -146 vhcurveto
          -288 -698 301 hlineto
          145 85 78 111 hvcurveto
          endchar
        </CharString>
        <CharString name="C">
          -58 callsubr
          endchar
        </CharString>
        <CharString name="CR">
          -390 endchar
        </CharString>
        <CharString name="Cacute">
          -58 callsubr
          232 495 -65 callgsubr
          endchar
        </CharString>
        <CharString name="Ccaron">
          -58 callsubr
          354 492 -60 callgsubr
        </CharString>
        <CharString name="Ccedilla">
          140 35 350 rmoveto
          -193 131 -141 179 -20 vhcurveto
          -117 62 vlineto
          -16 callgsubr
          41 vlineto
          135 14 107 80 42 130 rrcurveto
          -161 hlineto
          -68 -33 -60 -33 -75 hhcurveto
          -122 -87 90 141 142 87 89 122 75 60 -33 -67 33 hvcurveto
          161 hlineto
          143 -47 -126 83 -155 hhcurveto
          -201 -153 -148 -209 hvcurveto
          endchar
        </CharString>
        <CharString name="Cdotaccent">
          -58 callsubr
          353 422 rmoveto
          -99 callgsubr
          endchar
        </CharString>
        <CharString name="D">
          93 callsubr
          endchar
        </CharString>
        <CharString name="Dcaron">
          93 callsubr
          48 716 -60 callgsubr
        </CharString>
        <CharString name="Dcroat">
          60 callgsubr
        </CharString>
        <CharString name="E">
          -69 callsubr
          endchar
        </CharString>
        <CharString name="Eacute">
          -69 callsubr
          -328 253 -65 callgsubr
          endchar
        </CharString>
        <CharString name="Ebreve">
          -69 callsubr
          -47 312 -80 callsubr
          endchar
        </CharString>
        <CharString name="Ecaron">
          -69 callsubr
          -207 250 -60 callgsubr
        </CharString>
        <CharString name="Ecircumflex">
          -69 callsubr
          -59 255 -64 callsubr
          endchar
        </CharString>
        <CharString name="Edieresis">
          -69 callsubr
          -300 180 rmoveto
          -99 callgsubr
          185 hmoveto
          -99 callgsubr
          endchar
        </CharString>
        <CharString name="Edotaccent">
          -69 callsubr
          -208 180 rmoveto
          -99 callgsubr
          endchar
        </CharString>
        <CharString name="Egrave">
          -69 callsubr
          -328 258 -30 callsubr
          endchar
        </CharString>
        <CharString name="Emacron">
          -69 callsubr
          -398 192 88 callgsubr
        </CharString>
        <CharString name="Eogonek">
          -96 474 699 rmoveto
          -405 -699 245 hlineto
          -42 -33 -15 -34 -36 -3 callsubr
          rlineto
          114 -265 185 235 111 -235 175 265 vlineto
          endchar
        </CharString>
        <CharString name="Eth">
          60 callgsubr
        </CharString>
        <CharString name="Euro">
          171 90 350 rmoveto
          -12 1 -12 1 -12 vhcurveto
          -69 -83 85 hlineto
          -144 46 129 -93 161 hhcurveto
          155 125 82 144 47 hvcurveto
          -160 hlineto
          -65 -34 -59 -33 -75 hhcurveto
          -82 -66 41 68 -35 hvcurveto
          193 83 -217 hlineto
          -1 12 -1 12 12 vvcurveto
          13 1 13 1 12 vhcurveto
          217 83 -192 hlineto
          67 35 65 40 82 hhcurveto
          75 59 -33 -64 34 hvcurveto
          160 hlineto
          143 -47 -125 83 -155 hhcurveto
          -160 -129 -93 -143 -46 hvcurveto
          -86 -83 69 hlineto
          -1 -12 -1 -13 -13 vvcurveto
          endchar
        </CharString>
        <CharString name="F">
          -98 264 callsubr
          295 223 111 -223 179 291 113 -431 hlineto
          endchar
        </CharString>
        <CharString name="G">
          140 391 707 -60 callsubr
          endchar
        </CharString>
        <CharString name="Gbreve">
          140 391 707 -60 callsubr
          152 190 -80 callsubr
          endchar
        </CharString>
        <CharString name="Gdotaccent">
          140 391 707 -60 callsubr
          -8 58 rmoveto
          -99 callgsubr
          endchar
        </CharString>
        <CharString name="H">
          89 508 hmoveto
          140 283 callgsubr
          -287 -299 287 -140 -698 140 297 299 hlineto
          endchar
        </CharString>
        <CharString name="I">
          62 callsubr
          endchar
        </CharString>
        <CharString name="Iacute">
          62 callsubr
          -51 140 -65 callgsubr
          endchar
        </CharString>
        <CharString name="Icircumflex">
          62 callsubr
          219 142 -64 callsubr
          endchar
        </CharString>
        <CharString name="Idieresis">
          62 callsubr
          -23 67 rmoveto
          -99 callgsubr
          185 hmoveto
          -99 callgsubr
          endchar
        </CharString>
        <CharString name="Idotaccent">
          62 callsubr
          70 67 rmoveto
          -99 callgsubr
          endchar
        </CharString>
        <CharString name="Igrave">
          62 callsubr
          -51 145 -30 callsubr
          endchar
        </CharString>
        <CharString name="Imacron">
          62 callsubr
          -120 79 88 callgsubr
        </CharString>
        <CharString name="Iogonek">
          -350 221 -198 rmoveto
          -12 callgsubr
          45 23 rlineto
          2 283 callgsubr
          -683 240 callgsubr
          endchar
        </CharString>
        <CharString name="Itilde">
          62 callsubr
          -110 54 -96 callsubr
          endchar
        </CharString>
        <CharString name="J">
          -58 335 208 rmoveto
          -55 -26 -35 -52 -53 -27 36 59 -1 vhcurveto
          -140 hlineto
          -141 92 -79 131 129 88 77 138 vhcurveto
          490 -141 vlineto
          endchar
        </CharString>
        <CharString name="K">
          35 463 hmoveto
          139 callgsubr
        </CharString>
        <CharString name="L">
          -169 69 698 rmoveto
          134 callsubr
          endchar
        </CharString>
        <CharString name="Lacute">
          -169 69 698 rmoveto
          134 callsubr
          -106 140 -65 callgsubr
          endchar
        </CharString>
        <CharString name="Lcaron">
          -137 315 698 rmoveto
          -108 57 -19 vlineto
          -41 -16 -20 -33 vhcurveto
          -57 vlineto
          83 41 51 87 32 -4 36 -12 39 hvcurveto
          -362 hmoveto
          134 callsubr
          endchar
        </CharString>
        <CharString name="Ldot">
          -169 69 698 rmoveto
          134 callsubr
          15 67 rmoveto
          -99 callgsubr
          endchar
        </CharString>
        <CharString name="Lslash">
          -165 81 698 rmoveto
          -302 vlineto
          -72 -22 rlineto
          -113 vlineto
          72 22 rlineto
          -283 370 107 -229 220 vlineto
          88 27 rlineto
          114 vlineto
          -88 -27 rlineto
          257 vlineto
          endchar
        </CharString>
        <CharString name="M">
          271 264 callsubr
          454 hlineto
          188 -454 rlineto
          106 hlineto
          187 454 rlineto
          -454 140 698 -158 vlineto
          -222 -519 -222 519 rlineto
          -159 hlineto
          endchar
        </CharString>
        <CharString name="N">
          107 526 699 12 callsubr
          endchar
        </CharString>
        <CharString name="NULL">
          -628 endchar
        </CharString>
        <CharString name="Nacute">
          107 526 699 12 callsubr
          -419 139 -65 callgsubr
          endchar
        </CharString>
        <CharString name="Ncaron">
          107 526 699 12 callsubr
          -298 136 -60 callgsubr
        </CharString>
        <CharString name="Ntilde">
          107 526 699 12 callsubr
          -478 53 -96 callsubr
          endchar
        </CharString>
        <CharString name="O">
          -97 callsubr
          endchar
        </CharString>
        <CharString name="OE">
          444 1014 588 rmoveto
          110 -405 -89 vlineto
          66 -55 -79 33 -94 hhcurveto
          -189 -157 -147 -211 -210 156 -148 191 hvcurveto
          93 1 79 32 55 68 rrcurveto
          -93 405 111 -265 189 235 107 -235 181 vlineto
          -356 -9 rmoveto
          126 87 -89 -140 -139 283 callsubr
          -127 -87 91 139 140 87 89 127 hvcurveto
          endchar
        </CharString>
        <CharString name="Oacute">
          -97 callsubr
          93 487 -65 callgsubr
          endchar
        </CharString>
        <CharString name="Ocircumflex">
          -97 callsubr
          362 489 -64 callsubr
          endchar
        </CharString>
        <CharString name="Odieresis">
          -97 callsubr
          121 414 rmoveto
          -99 callgsubr
          185 hmoveto
          -99 callgsubr
          endchar
        </CharString>
        <CharString name="Ograve">
          -97 callsubr
          93 492 -30 callsubr
          endchar
        </CharString>
        <CharString name="Ohungarumlaut">
          -97 callsubr
          142 583 24 callsubr
        </CharString>
        <CharString name="Omacron">
          -97 callsubr
          23 426 88 callgsubr
        </CharString>
        <CharString name="Oslash">
          157 750 351 rmoveto
          96 -33 83 -55 61 vhcurveto
          99 109 rlineto
          -97 hlineto
          -55 -60 rlineto
          43 -60 -75 25 -81 hhcurveto
          -197 -161 -148 -209 -96 34 -83 55 -62 hvcurveto
          -100 -110 rlineto
          97 hlineto
          56 62 rlineto
          -44 60 75 -25 81 hhcurveto
          198 159 148 210 hvcurveto
          -571 hmoveto
          142 87 89 127 49 44 -14 -25 34 vhcurveto
          -304 -333 rlineto
          -24 38 -13 47 56 vvcurveto
          214 -233 rmoveto
          -50 -43 14 25 -35 hvcurveto
          304 333 rlineto
          24 -37 13 -47 -55 vvcurveto
          -142 283 callsubr
          vhcurveto
          endchar
        </CharString>
        <CharString name="Otilde">
          -97 callsubr
          34 401 -96 callsubr
          endchar
        </CharString>
        <CharString name="P">
          -20 209 381 rmoveto
          203 111 vlineto
          79 35 -38 -64 -62 -35 -39 -79 hvcurveto
          258 101 rmoveto
          121 -84 95 -168 vhcurveto
          -257 -698 140 268 117 hlineto
          180 72 108 106 hvcurveto
          endchar
        </CharString>
        <CharString name="Q">
          159 179 351 rmoveto
          142 87 89 127 126 87 -89 -142 -142 283 callsubr
          -127 -87 91 142 vhcurveto
          571 hmoveto
          209 -158 148 -199 -197 -161 -148 -209 -210 161 -148 197 31 31 4 7 28 vhcurveto
          106 -127 rlineto
          174 hlineto
          -160 180 rlineto
          89 63 58 104 127 vvcurveto
          endchar
        </CharString>
        <CharString name="R">
          -8 callgsubr
          endchar
        </CharString>
        <CharString name="Racute">
          -8 callgsubr
          -134 140 -65 callgsubr
          endchar
        </CharString>
        <CharString name="Rcaron">
          -8 callgsubr
          -12 137 -60 callgsubr
        </CharString>
        <CharString name="S">
          -19 557 202 -67 callgsubr
          -132 2 112 -76 145 hhcurveto
          159 88 99 110 hvcurveto
          endchar
        </CharString>
        <CharString name="Sacute">
          -19 557 202 -67 callgsubr
          -132 2 112 -76 145 hhcurveto
          159 88 99 110 hvcurveto
          -376 643 -65 callgsubr
          endchar
        </CharString>
        <CharString name="Scaron">
          -19 557 202 -67 callgsubr
          -132 2 112 -76 145 hhcurveto
          159 88 99 110 hvcurveto
          -254 640 -60 callgsubr
        </CharString>
        <CharString name="T">
          -51 32 585 160 callgsubr
          endchar
        </CharString>
        <CharString name="Tcaron">
          -51 32 585 160 callgsubr
          256 137 -60 callgsubr
        </CharString>
        <CharString name="Thorn">
          -20 209 245 rmoveto
          210 111 vlineto
          79 35 -42 -63 -63 -35 -42 -79 hvcurveto
          258 105 rmoveto
          119 -84 94 -168 vhcurveto
          -118 136 -139 -699 140 138 117 hlineto
          180 72 106 106 hvcurveto
          endchar
        </CharString>
        <CharString name="U">
          -87 callgsubr
          endchar
        </CharString>
        <CharString name="Uacute">
          -87 callgsubr
          160 140 -65 callgsubr
          endchar
        </CharString>
        <CharString name="Ubreve">
          -87 callgsubr
          441 199 -80 callsubr
          endchar
        </CharString>
        <CharString name="Ucircumflex">
          -87 callgsubr
          430 142 -64 callsubr
          endchar
        </CharString>
        <CharString name="Udieresis">
          -87 callgsubr
          189 67 rmoveto
          -99 callgsubr
          185 hmoveto
          -99 callgsubr
          endchar
        </CharString>
        <CharString name="Ugrave">
          -87 callgsubr
          160 145 -30 callsubr
          endchar
        </CharString>
        <CharString name="Uhungarumlaut">
          -87 callgsubr
          210 236 24 callsubr
        </CharString>
        <CharString name="Umacron">
          -87 callgsubr
          91 79 88 callgsubr
        </CharString>
        <CharString name="Uogonek">
          69 67 267 rmoveto
          -151 85 -87 114 -27 vhcurveto
          -43 -33 -15 -34 -37 -3 callsubr
          rlineto
          1 vlineto
          117 26 89 88 151 vvcurveto
          431 -141 -432 vlineto
          -96 -52 -50 -90 -89 -52 50 96 vhcurveto
          432 -140 vlineto
          endchar
        </CharString>
        <CharString name="Uring">
          -87 callgsubr
          282 279 7 callsubr
          endchar
        </CharString>
        <CharString name="Utilde">
          -87 callgsubr
          102 54 -96 callsubr
          endchar
        </CharString>
        <CharString name="V">
          83 356 143 rmoveto
          -192 555 rlineto
          -150 hlineto
          256 -698 rlineto
          170 hlineto
          256 698 rlineto
          -149 hlineto
          endchar
        </CharString>
        <CharString name="W">
          -56 callgsubr
          endchar
        </CharString>
        <CharString name="Wacute">
          -56 callgsubr
          413 144 -65 callgsubr
          endchar
        </CharString>
        <CharString name="Wcircumflex">
          -56 callgsubr
          635 146 -64 callsubr
          endchar
        </CharString>
        <CharString name="Wdieresis">
          -56 callgsubr
          394 68 rmoveto
          -99 callgsubr
          185 hmoveto
          -99 callgsubr
          endchar
        </CharString>
        <CharString name="Wgrave">
          -56 callgsubr
          345 145 -30 callsubr
          endchar
        </CharString>
        <CharString name="X">
          58 487 hmoveto
          161 hlineto
          -223 347 219 351 rlineto
          -158 hlineto
          -136 -234 -151 234 rlineto
          -161 hlineto
          223 -346 -220 -352 rlineto
          158 hlineto
          137 235 rlineto
          endchar
        </CharString>
        <CharString name="Y">
          -34 callsubr
          endchar
        </CharString>
        <CharString name="Yacute">
          -34 callsubr
          186 140 -65 callgsubr
          endchar
        </CharString>
        <CharString name="Ycircumflex">
          -34 callsubr
          456 142 -64 callsubr
          endchar
        </CharString>
        <CharString name="Ydieresis">
          -34 callsubr
          214 67 rmoveto
          -99 callgsubr
          185 hmoveto
          -99 callgsubr
          endchar
        </CharString>
        <CharString name="Ygrave">
          -34 callsubr
          186 145 -30 callsubr
          endchar
        </CharString>
        <CharString name="Z">
          28 callgsubr
          endchar
        </CharString>
        <CharString name="Zacute">
          28 callgsubr
          -359 248 -65 callgsubr
          endchar
        </CharString>
        <CharString name="Zcaron">
          28 callgsubr
          -238 245 -60 callgsubr
        </CharString>
        <CharString name="Zdotaccent">
          28 callgsubr
          -239 175 rmoveto
          -99 callgsubr
          endchar
        </CharString>
        <CharString name="a">
          -95 callgsubr
          endchar
        </CharString>
        <CharString name="a.ss02">
          -13 404 hmoveto
          -98 callsubr
        </CharString>
        <CharString name="aacute">
          -95 callgsubr
          -249 416 -65 callgsubr
          endchar
        </CharString>
        <CharString name="aacute.ss02">
          -13 220 288 callgsubr
          -46 -812 rmoveto
          -98 callsubr
        </CharString>
        <CharString name="abreve">
          -95 callgsubr
          32 475 -80 callsubr
          endchar
        </CharString>
        <CharString name="abreve.ss02">
          -13 501 752 -80 callsubr
          -97 -752 rmoveto
          -98 callsubr
        </CharString>
        <CharString name="acircumflex">
          -95 callgsubr
          20 418 -64 callsubr
          endchar
        </CharString>
        <CharString name="acircumflex.ss02">
          -13 489 695 -64 callsubr
          -85 -593 rmoveto
          -98 callsubr
        </CharString>
        <CharString name="acute">
          -378 10 288 callgsubr
          endchar
        </CharString>
        <CharString name="adieresis">
          -95 callgsubr
          -221 343 rmoveto
          -99 callgsubr
          185 hmoveto
          -99 callgsubr
          endchar
        </CharString>
        <CharString name="adieresis.ss02">
          -13 248 620 rmoveto
          -99 callgsubr
          185 hmoveto
          -99 callgsubr
          -29 -620 rmoveto
          -98 callsubr
        </CharString>
        <CharString name="ae">
          449 -17 callgsubr
          endchar
        </CharString>
        <CharString name="agrave">
          -95 callgsubr
          -249 421 -30 callsubr
          endchar
        </CharString>
        <CharString name="agrave.ss02">
          -13 220 698 -30 callsubr
          184 -812 rmoveto
          -98 callsubr
        </CharString>
        <CharString name="amacron">
          -95 callgsubr
          -319 355 88 callgsubr
        </CharString>
        <CharString name="amacron.ss02">
          -13 150 632 rmoveto
          382 100 -382 hlineto
          254 -732 rmoveto
          -98 callsubr
        </CharString>
        <CharString name="ampersand">
          150 537 536 rmoveto
          96 5 -68 81 -131 hhcurveto
          -128 -77 -74 -95 -46 14 -38 37 -45 hvcurveto
          -103 -46 -51 -77 -90 vvcurveto
          -130 102 -84 156 95 77 29 58 65 vhcurveto
          76 -75 rlineto
          172 hlineto
          -169 167 15 23 14 24 14 27 rlinecurve
          70 123 rlineto
          -146 hlineto
          -57 -95 -2 -3 -1 -3 -2 -2 rlinecurve
          -176 174 rlineto
          -44 46 -20 30 34 vvcurveto
          34 27 25 38 37 27 -23 -45 -2 vhcurveto
          -104 -432 rmoveto
          -76 -48 47 59 51 31 42 66 29 hvcurveto
          172 -170 rlineto
          -38 -41 -47 -20 -57 hhcurveto
          endchar
        </CharString>
        <CharString name="ampersand.ss03">
          55 146 564 rmoveto
          -51 20 -45 42 -53 vhcurveto
          -97 -11 -78 -82 -115 vvcurveto
          -123 91 -92 126 88 70 48 64 33 vhcurveto
          76 -104 rlineto
          157 hlineto
          -357 479 rlineto
          -26 34 -8 20 24 vvcurveto
          33 24 27 36 38 24 -27 -36 1 vhcurveto
          1 -12 -2 -16 -4 -12 rrcurveto
          135 hlineto
          5 21 1 25 -3 22 rrcurveto
          78 -7 -66 74 -124 hhcurveto
          -127 -69 -83 -87 hvcurveto
          10 -355 rmoveto
          57 41 42 55 53 43 -42 -57 -57 -43 -44 -53 -55 -41 44 57 vhcurveto
          endchar
        </CharString>
        <CharString name="aogonek">
          44 callsubr
          140 88 63 42 48 33 vhcurveto
          -67 vlineto
          -57 -37 -20 -38 -42 -3 callsubr
          rlineto
          1 297 callgsubr
          -79 hlineto
          46 -33 -61 42 -89 hhcurveto
          -141 -112 -111 -173 hvcurveto
          436 -2 rmoveto
          -105 -70 -58 -77 -75 -71 60 105 105 71 56 75 77 70 -58 -105 vhcurveto
          endchar
        </CharString>
        <CharString name="aogonek.ss02">
          -13 558 -199 rmoveto
          53 callsubr
          rlineto
          325 vlineto
          149 -107 90 -140 -140 -95 -88 -120 -19 vhcurveto
          140 hlineto
          55 11 40 34 59 hhcurveto
          67 40 -47 -69 2 hvcurveto
          -141 hlineto
          -161 -69 -80 -95 -97 79 -67 105 81 76 39 50 30 hvcurveto
          -66 vlineto
          -56 -37 -19 -38 -41 vvcurveto
          -79 68 -32 72 32 31 6 9 26 vhcurveto
          -382 368 rmoveto
          38 28 31 67 vhcurveto
          133 -4 hlineto
          -87 -80 -44 -66 -52 -30 26 40 vhcurveto
          endchar
        </CharString>
        <CharString name="apostrophemod.ss01">
          -427 34 819 rmoveto
          110 callsubr
        </CharString>
        <CharString name="approxequal">
          -36 32 153 rmoveto
          47 callgsubr
          235 vmoveto
          47 callgsubr
          endchar
        </CharString>
        <CharString name="aring">
          -95 callgsubr
          -128 555 7 callsubr
          endchar
        </CharString>
        <CharString name="aring.ss02">
          -13 341 832 7 callsubr
          63 -667 rmoveto
          -98 callsubr
        </CharString>
        <CharString name="asciicircum">
          52 503 167 rmoveto
          144 hlineto
          -240 533 rlineto
          -134 hlineto
          -240 -533 rlineto
          143 hlineto
          165 367 rlineto
          endchar
        </CharString>
        <CharString name="asciitilde">
          -36 32 224 rmoveto
          47 callgsubr
          endchar
        </CharString>
        <CharString name="asterisk">
          -110 313 738 rmoveto
          -105 hlineto
          23 -139 -111 88 -51 -92 129 -45 -130 -47 55 -96 107 91 -22 -138 rlineto
          104 hlineto
          -23 138 108 -89 52 93 -130 47 130 47 -50 90 -110 -87 rlineto
          endchar
        </CharString>
        <CharString name="at">
          423 740 -6 rmoveto
          154 85 158 160 204 -142 140 -235 -307 -224 -227 -298 -209 147 -135 225 75 72 13 27 64 hvcurveto
          -20 92 rlineto
          -24 -51 -62 -11 -58 hhcurveto
          -179 -103 92 166 236 171 183 235 181 102 -93 -161 -95 -34 -126 -76 -45 -4 32 51 8 hvcurveto
          47 270 rlineto
          -117 hlineto
          -9 -52 rlineto
          39 -21 -39 21 -58 hhcurveto
          -143 -98 -135 -149 -104 60 -66 102 69 64 32 52 39 hvcurveto
          -52 12 42 -31 71 hhcurveto
          -122 255 rmoveto
          -81 -58 -71 -73 -55 -25 37 52 79 48 78 76 56 31 -40 -54 vhcurveto
          endchar
        </CharString>
        <CharString name="atilde">
          -95 callgsubr
          -308 330 -96 callsubr
          endchar
        </CharString>
        <CharString name="atilde.ss02">
          -13 161 607 -96 callsubr
          243 -607 rmoveto
          -98 callsubr
        </CharString>
        <CharString name="b">
          50 209 473 rmoveto
          267 -140 -740 140 79 vlineto
          -48 34 62 -40 231 callgsubr
          -84 -65 -39 -51 -34 hvcurveto
          293 -194 219 callsubr
        </CharString>
        <CharString name="backslash">
          128 309 947 rmoveto
          -136 hlineto
          285 -1128 rlineto
          137 hlineto
          endchar
        </CharString>
        <CharString name="bar">
          84 808 rmoveto
          -929 141 929 vlineto
          endchar
        </CharString>
        <CharString name="braceleft">
          -120 207 224 rmoveto
          -69 -19 -109 -80 vvcurveto
          -106 70 -59 100 vhcurveto
          69 119 -42 hlineto
          -42 -20 18 41 hvcurveto
          62 17 110 78 vvcurveto
          69 -32 50 -73 15 vhcurveto
          2 vlineto
          73 14 32 51 68 79 -17 109 63 vvcurveto
          40 20 19 42 vhcurveto
          42 118 -69 hlineto
          -100 -70 -59 -106 hvcurveto
          -80 19 -108 -70 vvcurveto
          -49 -32 -30 -65 -6 vhcurveto
          -109 vlineto
          65 -5 32 -31 -49 vvcurveto
          endchar
        </CharString>
        <CharString name="braceright">
          -120 301 224 rmoveto
          -69 19 -109 -80 vvcurveto
          -106 -70 -59 -100 vhcurveto
          -69 119 42 hlineto
          42 20 18 41 hvcurveto
          62 -17 110 78 vvcurveto
          69 32 50 73 15 vhcurveto
          2 vlineto
          -73 14 -32 51 68 79 17 109 63 vvcurveto
          40 -20 19 -42 vhcurveto
          -42 118 69 hlineto
          100 70 -59 -106 hvcurveto
          -80 -19 -108 -70 vvcurveto
          -49 32 -30 65 -6 vhcurveto
          -109 vlineto
          -65 -5 -32 -31 -49 vvcurveto
          endchar
        </CharString>
        <CharString name="bracketleft">
          -131 135 -197 rmoveto
          251 116 -119 891 119 114 -251 hlineto
          endchar
        </CharString>
        <CharString name="bracketright">
          -132 361 -197 rmoveto
          -251 116 119 891 -119 114 251 hlineto
          endchar
        </CharString>
        <CharString name="breve">
          -289 329 752 -80 callsubr
          endchar
        </CharString>
        <CharString name="brokenbar">
          -278 105 278 rmoveto
          -399 140 399 vlineto
          131 vmoveto
          399 -140 -399 vlineto
          endchar
        </CharString>
        <CharString name="bullet">
          -148 239 194 rmoveto
          79 62 61 78 79 -62 61 -79 -77 -62 -61 -79 -78 62 -61 77 hvcurveto
          endchar
        </CharString>
        <CharString name="c">
          -54 callsubr
          endchar
        </CharString>
        <CharString name="cacute">
          -54 callsubr
          146 416 -65 callgsubr
          endchar
        </CharString>
        <CharString name="caron">
          -311 159 690 -60 callgsubr
        </CharString>
        <CharString name="ccaron">
          -54 callsubr
          267 413 -60 callgsubr
        </CharString>
        <CharString name="ccedilla">
          -26 33 277 rmoveto
          -157 93 -106 135 -20 vhcurveto
          -115 62 vlineto
          -16 callgsubr
          39 vlineto
          115 14 77 73 27 106 rrcurveto
          -151 hlineto
          -50 -17 -36 -26 -58 hhcurveto
          -78 -52 58 108 108 52 59 78 58 37 -30 -47 16 hvcurveto
          151 hlineto
          124 -30 -93 72 -138 hhcurveto
          -160 -114 -112 -174 hvcurveto
          endchar
        </CharString>
        <CharString name="cdotaccent">
          -54 callsubr
          266 343 rmoveto
          -99 callgsubr
          endchar
        </CharString>
        <CharString name="cedilla">
          -333 155 7 rmoveto
          -88 -126 62 hlineto
          -16 callgsubr
          endchar
        </CharString>
        <CharString name="cent">
          35 564 182 rmoveto
          -130 hlineto
          -44 -13 -37 -27 -62 hhcurveto
          -82 -52 55 92 92 52 55 82 62 36 -27 -44 14 hvcurveto
          130 hlineto
          -10 102 -85 71 -117 11 rrcurveto
          85 -64 -85 vlineto
          -152 -14 -81 -105 -141 vvcurveto
          -141 81 -105 152 -14 vhcurveto
          -85 64 85 vlineto
          117 11 85 71 10 102 rrcurveto
          endchar
        </CharString>
        <CharString name="circumflex">
          -311 307 695 -64 callsubr
          endchar
        </CharString>
        <CharString name="colon">
          -365 216 75 3 callsubr
          414 vmoveto
          138 callgsubr
        </CharString>
        <CharString name="colon.ss01">
          -336 68 hmoveto
          136 callgsubr
          260 vmoveto
          136 callgsubr
          endchar
        </CharString>
        <CharString name="comma">
          -374 15 -134 277 callgsubr
        </CharString>
        <CharString name="comma.ss01">
          -403 30 183 callsubr
          endchar
        </CharString>
        <CharString name="copyright">
          157 42 350 rmoveto
          -210 143 -148 208 207 143 148 210 210 -143 148 -207 -208 -143 -148 -210 vhcurveto
          646 hmoveto
          -184 -114 -124 -181 -182 -114 124 184 187 114 120 182 181 114 -120 -187 vhcurveto
          -90 73 rmoveto
          -123 hlineto
          37 -12 -31 21 -43 hhcurveto
          -59 -40 -43 -87 -87 40 -44 59 48 24 23 35 14 hvcurveto
          123 hlineto
          -92 -23 -79 -63 -104 hhcurveto
          -126 -94 89 139 139 94 88 126 104 79 -58 -97 23 hvcurveto
          endchar
        </CharString>
        <CharString name="currency">
          -67 364 377 rmoveto
          -64 -41 -31 -43 -44 -38 31 64 64 39 32 44 43 40 -32 -64 vhcurveto
          80 -219 rmoveto
          57 58 -56 56 rlineto
          21 29 12 35 41 vvcurveto
          42 -12 37 -21 28 vhcurveto
          56 57 -57 58 -64 -64 rlineto
          14 -28 -34 7 -37 hhcurveto
          -37 -34 -7 -14 -28 hvcurveto
          -64 64 -58 -58 58 -58 rlineto
          -20 -28 -12 -36 -42 vvcurveto
          -41 11 -35 20 -28 vhcurveto
          -57 -57 58 -58 62 62 rlineto
          -14 28 34 -8 38 hhcurveto
          38 34 8 14 29 hvcurveto
          endchar
        </CharString>
        <CharString name="d">
          44 callsubr
          141 87 62 40 51 33 vhcurveto
          -82 142 740 -142 -263 46 callgsubr
        </CharString>
        <CharString name="dagger">
          -11 364 543 rmoveto
          14 243 rlineto
          -140 hlineto
          14 -243 -203 11 rlineto
          -108 vlineto
          203 12 -14 -722 271 callsubr
          -14 722 203 -12 rlineto
          108 vlineto
          endchar
        </CharString>
        <CharString name="daggerdbl">
          -11 567 554 rmoveto
          -203 -11 14 243 rlineto
          -140 hlineto
          14 -243 -202 11 rlineto
          -108 vlineto
          202 12 rlineto
          -393 vlineto
          -202 11 rlineto
          -108 vlineto
          202 12 -14 -244 271 callsubr
          -14 244 203 -12 rlineto
          108 vlineto
          -203 -11 rlineto
          393 vlineto
          203 -12 rlineto
          endchar
        </CharString>
        <CharString name="danda">
          -308 151 741 rmoveto
          -741 128 741 vlineto
          endchar
        </CharString>
        <CharString name="dcaron">
          178 663 740 rmoveto
          -109 57 -19 vlineto
          -40 -16 -20 -34 vhcurveto
          -57 vlineto
          85 41 51 86 33 -6 36 -11 39 hvcurveto
          -746 -461 63 callgsubr
          141 87 62 40 51 33 vhcurveto
          -82 142 740 -142 -263 46 callgsubr
        </CharString>
        <CharString name="dcroat">
          56 79 callgsubr
          141 87 62 40 51 33 vhcurveto
          -82 142 590 60 74 -60 76 -142 -76 -76 -74 76 -113 46 callgsubr
        </CharString>
        <CharString name="degree">
          -184 27 527 rmoveto
          -110 80 -70 114 114 82 70 110 110 -81 68 -113 -115 -81 -68 -110 vhcurveto
          280 -1 rmoveto
          -68 -43 -32 -43 -44 -41 32 68 69 42 33 43 44 42 -33 -69 vhcurveto
          endchar
        </CharString>
        <CharString name="dieresis">
          -290 76 620 rmoveto
          -99 callgsubr
          185 hmoveto
          -99 callgsubr
          endchar
        </CharString>
        <CharString name="divide">
          20 73 296 rmoveto
          510 122 -510 hlineto
          343 -281 3 callsubr
          441 vmoveto
          138 callgsubr
        </CharString>
        <CharString name="divide.ss01">
          20 73 294 rmoveto
          510 125 -510 hlineto
          179 -357 rmoveto
          300 callgsubr
          284 vmoveto
          300 callgsubr
          endchar
        </CharString>
        <CharString name="dollar">
          26 277 -87 rmoveto
          64 81 hlineto
          146 10 80 95 102 vvcurveto
          148 -122 27 -104 27 vhcurveto
          189 vlineto
          39 -12 24 -30 4 -39 rrcurveto
          151 hlineto
          -9 119 -84 67 -125 10 rrcurveto
          81 -64 -81 vlineto
          -130 -10 -94 -77 -118 vvcurveto
          -148 121 -29 103 -26 vhcurveto
          -191 vlineto
          -46 10 -24 31 -4 46 rrcurveto
          -150 hlineto
          3 -120 92 -69 129 -11 rrcurveto
          145 200 rmoveto
          -45 -30 -35 -51 -9 vhcurveto
          175 vlineto
          47 -16 34 -23 -47 vvcurveto
          -223 314 rmoveto
          51 32 28 46 7 vhcurveto
          -173 vlineto
          -46 16 -32 24 47 vvcurveto
          endchar
        </CharString>
        <CharString name="dotaccent">
          -475 76 620 rmoveto
          -99 callgsubr
          endchar
        </CharString>
        <CharString name="dotlessi">
          96 callsubr
          endchar
        </CharString>
        <CharString name="dottedcircle">
          23 557 409 -47 callgsubr
          -376 -286 -47 callgsubr
          98 -76 -47 callgsubr
          -143 189 -47 callgsubr
          267 -203 -47 callgsubr
          -252 324 -47 callgsubr
          367 -278 -47 callgsubr
          -291 377 -47 callgsubr
          364 -281 -47 callgsubr
          -247 323 -47 callgsubr
          257 -203 -47 callgsubr
          -136 188 -47 callgsubr
          endchar
        </CharString>
        <CharString name="doubledanda">
          -58 151 741 rmoveto
          -741 128 741 vlineto
          120 hmoveto
          -741 128 741 vlineto
          endchar
        </CharString>
        <CharString name="dvA">
          207 230 465 rmoveto
          -104 43 vlineto
          -53 callsubr
          143 callsubr
          -240 -346 -186 vlineto
          -59 callgsubr
          endchar
        </CharString>
        <CharString name="dvAA">
          511 230 465 rmoveto
          -104 43 vlineto
          -53 callsubr
          129 267 callsubr
          -550 -346 -186 vlineto
          -59 callgsubr
          endchar
        </CharString>
        <CharString name="dvAI">
          24 340 19 rmoveto
          144 92 83 144 hvcurveto
          57 callgsubr
          97 108 -103 77 callgsubr
          -468 -108 110 hlineto
          245 callsubr
          vhcurveto
          endchar
        </CharString>
        <CharString name="dvAU">
          222 callsubr
          -120 vlineto
          306 -157 -34 14 -144 35 callsubr
          -318 -346 -186 hlineto
          -59 callgsubr
          -43 -104 43 hlineto
          -53 callsubr
          vlineto
          endchar
        </CharString>
        <CharString name="dvAbbreviationsign">
          -146 243 506 rmoveto
          -100 -71 -68 -97 -96 71 -69 100 99 69 68 96 98 -69 68 -99 hvcurveto
          -77 vmoveto
          51 37 -38 -51 -51 -37 -36 -51 -53 -39 36 52 51 39 37 53 hvcurveto
          endchar
        </CharString>
        <CharString name="dvAcandra">
          210 230 465 rmoveto
          -104 43 vlineto
          -53 callsubr
          143 callsubr
          -240 -346 -186 vlineto
          -59 callgsubr
          640 562 1 callsubr
        </CharString>
        <CharString name="dvAnusvara">
          -628 -78 899 -7 callsubr
        </CharString>
        <CharString name="dvAnusvara.amI">
          -628 207 899 -7 callsubr
        </CharString>
        <CharString name="dvAvagraha">
          -39 331 52 rmoveto
          101 63 55 83 hvcurveto
          170 -238 68 90 vvcurveto
          38 30 7 32 vhcurveto
          186 109 -218 hlineto
          -92 -70 -41 -93 hvcurveto
          -172 239 -67 -90 vvcurveto
          -28 -22 -20 -43 vhcurveto
          -235 -109 hlineto
          endchar
        </CharString>
        <CharString name="dvB">
          -231 577 315 rmoveto
          119 -81 119 -177 -43 callgsubr
          169 88 113 132 vhcurveto
          -254 149 rmoveto
          -82 callgsubr
          257 168 -84 callgsubr
          -601 -108 vlineto
          344 188 callsubr
          endchar
        </CharString>
        <CharString name="dvBA">
          61 599 226 callsubr
          -730 -108 495 109 callgsubr
          -138 -104 -96 -142 111 callsubr
          hvcurveto
          -151 vlineto
          -146 467 -61 callgsubr
          endchar
        </CharString>
        <CharString name="dvBH">
          -99 -15 callsubr
          200 105 -200 -4 callgsubr
        </CharString>
        <CharString name="dvBHA">
          203 -15 callsubr
          139 -355 129 632 112 108 -241 -280 -139 -4 callgsubr
        </CharString>
        <CharString name="dvBH_LA">
          812 -15 callsubr
          123 vlineto
          -4 -19 -2 -20 -21 vvcurveto
          136 callsubr
          164 9 11 1 1 14 vhcurveto
          98 callgsubr
          -9 -12 -1 -7 hhcurveto
          -79 -47 -75 callgsubr
          107 275 callsubr
          -79 -7 -10 1 1 -11 vhcurveto
          -113 vlineto
          -1 14 12 -1 8 hhcurveto
          -42 callsubr
          214 108 -886 -108 546 -105 vlineto
          -74 -15 -40 -51 -19 -55 rrcurveto
          -4 hlineto
          64 -22 -52 61 -100 hhcurveto
          -66 -59 -24 -47 -41 hvcurveto
          -172 60 hlineto
          1 callgsubr
        </CharString>
        <CharString name="dvBH_NA">
          717 -15 callsubr
          125 vlineto
          -5 -19 -3 -20 -23 vvcurveto
          -129 99 247 callgsubr
          91 67 122 -10 callsubr
          vhcurveto
          192 callgsubr
          143 callsubr
          -776 -108 536 220 callsubr
          hlineto
          -54 -50 -13 -26 -39 hvcurveto
          -201 60 hlineto
          -85 callgsubr
          234 -3 rmoveto
          295 callsubr
          235 callgsubr
          -61 -41 40 57 vhcurveto
          endchar
        </CharString>
        <CharString name="dvBH_R">
          -99 117 callsubr
          201 112 rmoveto
          46 204 103 -204 55 vlineto
          60 callsubr
          -78 -76 vlineto
          -119 -95 -61 -123 196 callgsubr
          -56 -399 rmoveto
          260 262 rlineto
          117 vlineto
          -402 -379 rlineto
          endchar
        </CharString>
        <CharString name="dvBH_RA">
          203 117 callsubr
          201 112 rmoveto
          46 168 -98 vlineto
          -366 -347 rlineto
          142 hlineto
          230 231 rlineto
          -148 117 632 272 callgsubr
          -235 -275 -168 55 vlineto
          60 callsubr
          -78 -76 vlineto
          -119 -95 -61 -123 196 callgsubr
          endchar
        </CharString>
        <CharString name="dvBH_R_YA">
          639 117 callsubr
          606 -3 13 callgsubr
          -405 115 rmoveto
          46 108 vlineto
          2 -49 9 -43 17 -37 -334 -316 rcurveline
          142 hlineto
          245 242 rlineto
          -42 45 63 -24 79 3 callgsubr
          -152 60 hlineto
          60 callsubr
          -83 -76 vlineto
          -119 -95 -59 -120 196 callgsubr
          endchar
        </CharString>
        <CharString name="dvBH_VA">
          569 -15 callsubr
          118 186 callsubr
          57 32 51 139 callsubr
          -169 vlineto
          51 282 callsubr
          -80 -63 -32 -54 -39 hvcurveto
          -159 60 hlineto
          -85 callgsubr
          99 callgsubr
        </CharString>
        <CharString name="dvBH_YA">
          639 -15 callsubr
          105 vlineto
          -160 8 96 -102 164 3 callgsubr
          -149 60 hlineto
          -85 callgsubr
          402 -95 13 callgsubr
          endchar
        </CharString>
        <CharString name="dvB_BA">
          477 323 464 rmoveto
          -82 callgsubr
          692 -464 151 callgsubr
          -1146 -108 912 -159 vlineto
          46 -36 -59 33 -78 hhcurveto
          -80 -69 -32 -56 -43 hvcurveto
          53 -41 -68 36 -98 hhcurveto
          -43 callgsubr
          95 69 36 55 43 hvcurveto
          -57 43 69 -33 80 hhcurveto
          80 60 33 48 32 hvcurveto
          -152 vlineto
          -568 160 rmoveto
          -83 callsubr
          423 4 rmoveto
          -85 -72 56 94 28 7 26 11 21 hvcurveto
          239 -190 rlineto
          -22 -25 -33 -13 -42 hhcurveto
          -2 303 rmoveto
          100 227 callsubr
          -26 -12 -22 135 callsubr
          28 35 12 38 hhcurveto
          endchar
        </CharString>
        <CharString name="dvB_BHA">
          613 678 185 rmoveto
          -49 -36 32 53 54 41 31 56 hvcurveto
          71 -66 hlineto
          -63 -28 -41 -55 vhcurveto
          204 251 callgsubr
          139 -355 130 632 111 114 callgsubr
          -25 -21 296 callsubr
          -644 -108 639 1 hlineto
          46 -1 rlineto
          4 9 9 3 11 hhcurveto
          48 20 -39 -57 hvcurveto
          -83 -75 vlineto
          -51 -47 -12 -24 -36 hvcurveto
          73 -36 -76 56 -121 hhcurveto
          -43 callgsubr
          87 65 30 46 43 hvcurveto
          -44 35 57 -26 73 hhcurveto
          132 70 82 138 hvcurveto
          -559 168 rmoveto
          -82 callgsubr
          -304 vmoveto
          -83 callsubr
          endchar
        </CharString>
        <CharString name="dvB_BH_RA">
          634 323 464 rmoveto
          -82 callgsubr
          -304 vmoveto
          -83 callsubr
          355 44 rmoveto
          -48 -36 29 48 51 39 30 55 hvcurveto
          76 -54 hlineto
          -64 -28 -40 -58 vhcurveto
          -16 428 rmoveto
          5 9 9 2 13 hhcurveto
          50 21 -38 -58 hvcurveto
          -78 -76 vlineto
          -53 -49 -12 -25 -37 hvcurveto
          71 -36 -75 54 -119 hhcurveto
          -43 callgsubr
          92 68 34 52 43 hvcurveto
          -38 36 55 -21 67 hhcurveto
          127 74 87 132 hvcurveto
          46 166 -98 vlineto
          -365 -347 rlineto
          141 hlineto
          232 233 rlineto
          -150 116 -65 callsubr
          -235 -275 -166 55 vlineto
          130 -51 99 -142 -25 -23 296 callsubr
          -643 -108 hlineto
          endchar
        </CharString>
        <CharString name="dvB_DA">
          400 1048 258 callgsubr
          -1070 -108 814 -91 -50 hlineto
          -88 -76 -28 -53 -49 hvcurveto
          55 -41 -69 38 -101 hhcurveto
          -43 callgsubr
          92 67 33 52 43 hvcurveto
          -51 40 62 -26 68 hhcurveto
          61 50 22 38 29 hvcurveto
          -7 callgsubr
          hlineto
          -600 -472 -64 callgsubr
        </CharString>
        <CharString name="dvB_DHA">
          488 182 callgsubr
          822 473 rmoveto
          152 callsubr
          -72 -51 28 58 0 callgsubr
          -22 246 callsubr
          -607 -108 497 96 callgsubr
          -48 -10 -54 -37 -13 -68 rrcurveto
          -1 hlineto
          -3 -20 -6 -20 -10 -18 -240 194 rcurveline
          24 28 38 14 41 hhcurveto
          24 17 -3 -5 19 hvcurveto
          86 vlineto
          7 -24 -26 2 -22 hhcurveto
          -146 -107 -97 -146 -155 121 -86 137 83 69 32 56 42 hvcurveto
          -48 40 68 -25 78 hhcurveto
          97 74 37 63 42 hvcurveto
          -185 55 callsubr
        </CharString>
        <CharString name="dvB_DH_VA">
          896 182 callgsubr
          1108 473 rmoveto
          289 callsubr
          hlineto
          -52 callgsubr
          -22 246 callsubr
          -607 -108 497 96 callgsubr
          -48 -10 -54 -37 -13 -68 rrcurveto
          -1 hlineto
          -3 -20 -6 -20 -10 -18 -240 194 rcurveline
          24 28 38 14 41 hhcurveto
          24 17 -3 -5 19 hvcurveto
          86 vlineto
          7 -24 -26 2 -22 hhcurveto
          -146 -107 -97 -146 -155 121 -86 137 83 68 32 56 43 hvcurveto
          -50 41 74 -24 88 hhcurveto
          293 callgsubr
          hvcurveto
          130 callgsubr
          127 vlineto
          -260 61 callsubr
        </CharString>
        <CharString name="dvB_JA">
          618 323 160 rmoveto
          -83 callsubr
          944 472 -84 callgsubr
          -1288 -108 1048 -140 -270 -162 vlineto
          14 callgsubr
          191 callgsubr
          -833 182 callsubr
        </CharString>
        <CharString name="dvB_JHA">
          707 323 160 rmoveto
          -83 -73 56 95 29 6 25 11 22 hvcurveto
          240 -192 rlineto
          -22 -25 -34 -13 -42 hhcurveto
          373 169 rmoveto
          -44 -35 16 43 49 45 12 42 hvcurveto
          219 183 195 -303 hlineto
          127 -329 151 callgsubr
          -1376 -108 820 -90 -126 vlineto
          -96 -87 -43 -110 hvcurveto
          -34 vlineto
          -42 -10 -42 -20 -34 vhcurveto
          -241 193 rlineto
          23 28 37 13 41 hhcurveto
          30 24 -5 -7 23 hvcurveto
          88 vlineto
          7 -26 -27 4 -30 hhcurveto
          -43 callgsubr
          136 79 84 110 25 hvcurveto
          29 -17 36 -8 34 -1 rrcurveto
          112 hlineto
          72 35 -32 -50 -39 -26 -34 -62 -67 -38 38 49 -6 hvcurveto
          -110 -251 117 131 hlineto
          -20 16 43 -42 85 hhcurveto
          110 57 66 86 38 -10 31 -17 23 hvcurveto
          148 -232 hlineto
          endchar
        </CharString>
        <CharString name="dvB_J_YA">
          1073 1307 201 rmoveto
          -105 -60 67 99 -2 hvcurveto
          113 14 61 68 106 vvcurveto
          77 167 -260 vlineto
          -100 -69 -71 -105 vhcurveto
          -984 263 rmoveto
          -82 callgsubr
          -304 vmoveto
          -83 callsubr
          1398 472 -84 callgsubr
          -1742 -108 1208 -54 vlineto
          -83 -46 -40 -113 vhcurveto
          -271 -125 hlineto
          14 callgsubr
          21 131 vlineto
          -156 16 94 -99 157 hhcurveto
          93 67 34 51 40 hvcurveto
          -178 -9 callgsubr
        </CharString>
        <CharString name="dvB_JxA">
          623 1267 -72 callsubr
          -1288 -108 1048 -140 -270 -162 vlineto
          14 callgsubr
          145 callgsubr
          -427 192 -64 callgsubr
        </CharString>
        <CharString name="dvB_LA">
          683 1001 44 rmoveto
          83 callsubr
          75 -78 30 hvcurveto
          116 212 108 -1352 -108 1012 -105 vlineto
          -74 -15 -40 -51 -19 -55 rrcurveto
          39 callgsubr
          80 32 63 74 69 36 -54 -71 -82 -48 -54 -79 -6 -11 1 1 -10 150 callgsubr
          -678 116 -64 callgsubr
        </CharString>
        <CharString name="dvB_L_YA">
          1174 323 160 rmoveto
          -83 callsubr
          1085 41 rmoveto
          -107 -61 63 90 79 callsubr
          69 113 vvcurveto
          86 -90 callsubr
          -1843 -108 1309 -63 vlineto
          -74 -27 -46 -61 -18 vhcurveto
          63 -32 -61 37 -72 hhcurveto
          -103 -52 -60 -65 -22 hvcurveto
          39 callgsubr
          81 32 62 77 55 28 -35 -32 10 vhcurveto
          -157 6 97 -101 166 122 callsubr
          -5 callgsubr
          vlineto
          -1388 182 callsubr
        </CharString>
        <CharString name="dvB_NA">
          603 592 94 callsubr
          -1273 -108 1033 188 callgsubr
          -64 -58 -18 -36 -41 hvcurveto
          63 -39 -73 45 -109 hhcurveto
          -43 callgsubr
          93 69 34 53 42 hvcurveto
          -45 40 61 -25 67 202 callsubr
          -818 -472 -64 callgsubr
        </CharString>
        <CharString name="dvB_R">
          -231 580 -72 callsubr
          -601 -108 vlineto
          598 -317 rmoveto
          119 -81 119 -177 -43 callgsubr
          vhcurveto
          2 3 0 2 hhcurveto
          -127 -129 rlineto
          131 hlineto
          176 197 rlineto
          46 45 24 64 68 vvcurveto
          -254 149 rmoveto
          -82 callgsubr
          -304 vmoveto
          -83 callsubr
          endchar
        </CharString>
        <CharString name="dvB_RA">
          60 458 133 232 callsubr
          -729 -108 495 109 callgsubr
          -138 -104 -96 -142 -136 95 -90 128 -9 hvcurveto
          -136 -138 rlineto
          137 hlineto
          45 526 -61 callgsubr
          endchar
        </CharString>
        <CharString name="dvB_SA">
          603 323 464 rmoveto
          -82 callgsubr
          -304 vmoveto
          -83 callsubr
          517 396 209 callgsubr
          -1272 -108 732 -76 vlineto
          -86 -43 -59 -110 vhcurveto
          80 -33 -78 62 -128 hhcurveto
          -43 callgsubr
          76 59 23 37 43 hvcurveto
          -83 24 65 -56 103 hhcurveto
          129 77 229 callgsubr
          -26 44 58 vhcurveto
          116 407 -319 55 callsubr
        </CharString>
        <CharString name="dvB_SHA">
          613 919 203 rmoveto
          16 -127 -14 vlineto
          -60 -32 -41 -57 -70 -27 221 callgsubr
          59 vlineto
          147 118 74 157 141 -90 78 -132 -25 -23 -3 -6 -20 hvcurveto
          -661 -108 697 hlineto
          4 10 10 1 12 hhcurveto
          57 34 -39 -60 -95 -86 -35 -94 hvcurveto
          -60 hlineto
          81 -32 -78 64 -130 hhcurveto
          -43 callgsubr
          77 61 24 38 42 hvcurveto
          -87 28 72 -53 106 hhcurveto
          130 83 79 132 hvcurveto
          -596 261 rmoveto
          -82 callgsubr
          -304 vmoveto
          -83 callsubr
          828 -160 rmoveto
          632 110 271 callgsubr
        </CharString>
        <CharString name="dvB_TA">
          487 1136 -72 callsubr
          -1157 -108 917 228 callgsubr
          -83 -73 -20 -43 -52 hvcurveto
          70 -37 -76 52 -117 hhcurveto
          -43 callgsubr
          75 59 22 36 42 hvcurveto
          -86 41 88 -40 107 hhcurveto
          -50 callgsubr
          -703 -472 -64 callgsubr
        </CharString>
        <CharString name="dvB_VA">
          459 736 178 -81 callgsubr
          -1128 -108 892 58 callsubr
          -76 -61 -30 -50 -40 hvcurveto
          52 -42 -68 35 -96 hhcurveto
          -43 callgsubr
          93 68 34 53 43 hvcurveto
          -51 39 62 -31 77 hhcurveto
          77 58 32 51 34 hvcurveto
          -158 126 632 110 vlineto
          -784 189 callgsubr
          -304 vmoveto
          -83 callsubr
          endchar
        </CharString>
        <CharString name="dvB_YA">
          519 769 201 144 callsubr
          -1204 -108 670 -54 vlineto
          -80 -31 -47 -72 -15 vhcurveto
          67 -38 -75 50 -114 hhcurveto
          -43 callgsubr
          104 73 42 64 41 hvcurveto
          -53 45 70 -30 89 140 callsubr
          vlineto
          -750 -472 -64 callgsubr
        </CharString>
        <CharString name="dvC">
          -181 417 416 rmoveto
          179 callsubr
          vlineto
          155 callgsubr
          -129 100 -66 133 168 102 112 161 -3 vhcurveto
          -111 hlineto
          121 callgsubr
          260 216 -84 callgsubr
          -659 265 callsubr
        </CharString>
        <CharString name="dvCA">
          118 767 -72 callsubr
          -788 -108 548 216 callgsubr
          -367 -102 150 hlineto
          -40 -31 -22 -47 -55 vvcurveto
          -123 92 -71 116 78 65 32 55 38 vhcurveto
          -176 55 callsubr
        </CharString>
        <CharString name="dvCH">
          193 842 632 43 callgsubr
          73 callgsubr
        </CharString>
        <CharString name="dvCHA">
          193 842 632 43 callgsubr
          177 callgsubr
          -241 -499 -79 callsubr
          endchar
        </CharString>
        <CharString name="dvCH_R">
          50 callsubr
          73 callgsubr
        </CharString>
        <CharString name="dvCH_RA">
          50 callsubr
          177 callgsubr
          -241 -499 -79 callsubr
          endchar
        </CharString>
        <CharString name="dvCH_R_YA">
          -19 callgsubr
          -121 93 -71 141 -22 vhcurveto
          -121 -142 rlineto
          -4 callsubr
          -129 150 97 23 71 52 39 74 rlinecurve
          210 callgsubr
        </CharString>
        <CharString name="dvCH_YA">
          -19 callgsubr
          -148 138 -73 196 164 118 60 104 55 vhcurveto
          210 callgsubr
        </CharString>
        <CharString name="dvC_CA">
          495 379 196 rmoveto
          -65 -54 38 71 187 callsubr
          199 hlineto
          -32 -25 -21 -35 -7 -42 rrcurveto
          -66 -19 -45 -52 -74 hhcurveto
          765 436 -84 callgsubr
          -1165 -108 925 216 callgsubr
          -744 -102 150 hlineto
          155 callgsubr
          -129 93 -66 124 86 58 38 60 40 vhcurveto
          -63 34 69 -34 81 hhcurveto
          78 65 32 55 38 hvcurveto
          -176 55 callsubr
        </CharString>
        <CharString name="dvC_CHA">
          637 845 133 -18 callsubr
          rrcurveto
          -88 46 116 -44 152 hhcurveto
          168 callsubr
          111 -54 70 -81 22 hvcurveto
          97 vlineto
          endchar
        </CharString>
        <CharString name="dvC_CH_VA">
          637 841 -205 rmoveto
          -67 -47 45 68 66 44 47 78 2 hvcurveto
          0 vlineto
          35 38 3 7 34 hvcurveto
          -127 vlineto
          -55 -38 -56 -77 vhcurveto
          4 338 -18 callsubr
          28 -53 53 -37 71 -21 rrcurveto
          -48 -34 -28 -56 -65 vvcurveto
          -110 78 -83 125 66 50 26 43 31 vhcurveto
          -124 116 433 vlineto
          95 52 54 90 116 vvcurveto
          177 callgsubr
          endchar
        </CharString>
        <CharString name="dvC_MA">
          655 1063 460 38 callgsubr
          -354 -447 rmoveto
          -93 callgsubr
          595 447 -84 callgsubr
          -1325 -108 815 -172 -76 vlineto
          -104 -86 -49 -98 -19 hvcurveto
          0 vlineto
          -67 -14 -44 -50 -76 hhcurveto
          -65 -50 39 70 17 callgsubr
          -126 95 -69 125 77 59 28 48 39 vhcurveto
          -55 34 63 -33 81 33 callsubr
        </CharString>
        <CharString name="dvC_NA">
          648 623 94 callsubr
          -1304 -108 1064 188 callgsubr
          -122 -98 -65 -128 -7 hvcurveto
          -12 -61 -44 -46 -72 -1 rrcurveto
          -65 -54 37 70 17 callgsubr
          -127 101 -67 127 77 61 31 53 39 vhcurveto
          -55 39 67 -31 74 -11 callgsubr
        </CharString>
        <CharString name="dvC_R">
          -181 638 -72 callsubr
          -659 -108 vlineto
          438 -216 rmoveto
          179 callsubr
          vlineto
          155 callgsubr
          -128 99 -66 132 -1 vhcurveto
          -127 -134 rlineto
          139 hlineto
          171 195 57 48 31 75 -2 89 rlinecurve
          -111 hlineto
          121 callgsubr
          endchar
        </CharString>
        <CharString name="dvC_RA">
          118 767 -72 callsubr
          -788 -108 548 216 callgsubr
          -367 -102 150 hlineto
          -40 -31 -22 -47 -55 vvcurveto
          -111 78 -66 103 -10 vhcurveto
          -135 -142 271 callsubr
          170 191 13 10 11 12 9 13 rlinecurve
          -180 55 callsubr
        </CharString>
        <CharString name="dvC_YA">
          588 823 201 rmoveto
          -88 callsubr
          -1258 -108 723 242 callsubr
          -1 -13 -2 -14 -1 -13 rrcurveto
          0 vlineto
          -1 -136 -61 -58 -84 -1 rrcurveto
          -68 -53 38 71 17 callgsubr
          -129 97 -66 134 90 72 37 74 43 vhcurveto
          -67 45 75 -39 102 hhcurveto
          94 -77 callgsubr
        </CharString>
        <CharString name="dvCandrabindu">
          -628 64 14 callsubr
        </CharString>
        <CharString name="dvD">
          -18 673 -306 -61 callsubr
          91 938 -3 callgsubr
          endchar
        </CharString>
        <CharString name="dvDA">
          -17 631 632 -3 callgsubr
          endchar
        </CharString>
        <CharString name="dvDA_mvR">
          -33 567 212 rmoveto
          -108 hlineto
          -80 -55 -44 -82 -70 -43 28 50 48 40 22 54 vhcurveto
          48 95 -43 hlineto
          -60 -41 21 43 50 45 14 54 hvcurveto
          188 173 128 108 -643 -108 391 -83 -116 hlineto
          -97 -81 -39 -100 -72 59 -44 57 -11 hvcurveto
          -3 vlineto
          -58 -10 -58 -40 -77 vvcurveto
          -109 103 -53 134 152 101 73 148 1 vhcurveto
          endchar
        </CharString>
        <CharString name="dvDD">
          -59 501 -298 -61 callsubr
          221 930 -32 callsubr
          endchar
        </CharString>
        <CharString name="dvDDA">
          -59 589 632 -32 callsubr
          endchar
        </CharString>
        <CharString name="dvDDH">
          22 545 -282 -61 callsubr
          258 914 -84 callgsubr
          -691 -108 399 -77 callsubr
          108 174 hlineto
          endchar
        </CharString>
        <CharString name="dvDDHA">
          22 670 -72 callsubr
          -691 -108 399 -77 callsubr
          108 174 hlineto
          endchar
        </CharString>
        <CharString name="dvDDH_DDHA">
          46 695 -72 callsubr
          -716 -108 401 -75 -42 vlineto
          -151 -114 -82 -153 -96 48 -69 77 -40 hvcurveto
          -76 -36 -49 -67 -97 vvcurveto
          -155 129 -84 168 163 89 67 107 87 -64 61 -107 -95 -62 -44 284 callgsubr
          7 5 vvcurveto
          32 26 22 41 46 25 -27 -37 -55 -59 -32 -87 -119 -62 62 91 107 85 53 104 145 97 67 107 87 -60 61 -110 -95 -63 240 callsubr
          26 22 41 46 25 -26 -38 -55 -59 -33 -87 306 callgsubr
          116 157 hlineto
          endchar
        </CharString>
        <CharString name="dvDDH_R">
          22 552 -374 -61 callsubr
          251 1006 4 callsubr
        </CharString>
        <CharString name="dvDDH_RA">
          22 670 632 4 callsubr
        </CharString>
        <CharString name="dvDDH_VA">
          24 672 -72 callsubr
          -693 -108 397 -75 -38 vlineto
          -151 -114 -82 -153 -98 47 -71 73 -39 hvcurveto
          -59 -30 -37 -57 -74 vvcurveto
          -109 76 -79 121 65 49 26 44 29 vhcurveto
          -148 108 436 vlineto
          44 30 24 45 55 vvcurveto
          86 -59 60 -104 -94 -62 240 callsubr
          25 22 40 40 24 -26 -37 -55 -55 -34 -82 306 callgsubr
          112 157 hlineto
          -162 -768 rmoveto
          -62 -45 40 63 76 59 34 91 25 23 2 3 21 hvcurveto
          -105 vlineto
          -55 -36 -58 -76 vhcurveto
          endchar
        </CharString>
        <CharString name="dvDDH_YA">
          674 1213 hmoveto
          632 109 108 -1343 -108 399 -77 callsubr
          346 hlineto
          45 56 -10 -60 -46 -43 -18 -60 2 hvcurveto
          -38 hlineto
          -1 -8 0 -10 -8 vvcurveto
          -160 95 -78 128 82 52 32 49 32 vhcurveto
          -143 vlineto
          -141 159 rmoveto
          -82 -39 49 63 -5 hvcurveto
          84 6 60 38 81 vvcurveto
          102 -76 46 -135 vhcurveto
          -252 88 586 -312 hlineto
          -101 -57 -60 -84 vhcurveto
          endchar
        </CharString>
        <CharString name="dvDDHxA">
          22 670 -72 callsubr
          -691 -108 399 -77 callsubr
          108 174 hlineto
          -69 -777 rmoveto
          -97 callgsubr
          endchar
        </CharString>
        <CharString name="dvDD_DDA">
          -46 603 -72 callsubr
          -624 304 callsubr
          -79 -89 vlineto
          -97 -80 -40 -94 -101 87 -31 122 61 58 -8 -58 -41 -31 -26 -64 -79 -44 36 47 -2 294 callgsubr
          -55 34 -43 51 -25 vhcurveto
          -43 -19 -27 -33 -49 vvcurveto
          -98 88 -28 122 63 55 -8 -60 -42 -31 -25 -64 -79 -44 35 50 -2 vhcurveto
          -123 hlineto
          -111 5 105 -58 139 hhcurveto
          138 77 56 96 117 -89 31 -135 -59 -46 4 44 37 33 15 69 146 81 56 96 116 -90 31 -130 -60 -42 6 42 44 41 9 39 hvcurveto
          314 callgsubr
        </CharString>
        <CharString name="dvDD_DDHA">
          -35 593 -72 callsubr
          -607 -108 362 -79 -89 vlineto
          -97 -79 -40 -94 -101 86 -31 123 60 58 -8 -58 -41 -32 -26 -63 -78 -44 36 47 -3 294 callgsubr
          -59 40 -45 56 -24 vhcurveto
          -76 -32 -49 -66 -99 vvcurveto
          -155 125 -80 161 154 84 68 106 87 -62 61 -105 -92 -61 -44 -78 -10 2 -12 2 -11 vhcurveto
          85 hlineto
          -2 5 -1 6 5 vvcurveto
          33 25 21 38 43 24 -27 -38 -55 -56 -32 -81 -115 -59 60 86 103 79 50 98 6 vhcurveto
          138 12 70 49 92 vvcurveto
          116 -91 31 -131 -59 -42 6 42 44 41 9 39 vhcurveto
          314 callgsubr
        </CharString>
        <CharString name="dvDD_R">
          -59 497 -389 -61 callsubr
          225 1021 11 callsubr
        </CharString>
        <CharString name="dvDD_RA">
          -59 589 632 11 callsubr
        </CharString>
        <CharString name="dvDD_VA">
          -34 284 -155 rmoveto
          -58 -46 38 63 73 52 37 85 26 24 2 4 22 hvcurveto
          -122 vlineto
          -46 -36 -49 -69 vhcurveto
          331 787 -84 callgsubr
          -636 -108 369 -79 -89 vlineto
          -97 -79 -40 -94 -121 116 -17 84 69 58 -8 -62 -43 -32 -26 -63 -78 -44 37 45 -3 294 callgsubr
          -58 39 -50 59 -28 vhcurveto
          -58 -27 -37 -56 -72 vvcurveto
          -107 75 -72 109 57 48 20 36 30 vhcurveto
          -123 108 427 vlineto
          23 25 12 32 39 vvcurveto
          110 -83 37 -119 5 vhcurveto
          -68 2 -53 -2 51 vvcurveto
          45 43 10 37 vhcurveto
          314 callgsubr
        </CharString>
        <CharString name="dvDD_YA">
          568 1106 226 callsubr
          -1237 -108 364 -92 -88 vlineto
          -96 -86 -42 -105 -128 111 -27 80 hvcurveto
          -93 callsubr
          343 hlineto
          43 57 -10 -57 -46 -41 -15 -58 hvcurveto
          -41 hlineto
          -1 -9 0 -8 -8 vvcurveto
          -159 94 -75 128 82 52 33 50 32 vhcurveto
          -145 vlineto
          -140 159 rmoveto
          -84 -38 48 60 -5 hvcurveto
          92 8 53 45 71 vvcurveto
          100 -78 47 -137 vhcurveto
          -175 94 512 -304 hlineto
          -106 -56 -63 -84 vhcurveto
          endchar
        </CharString>
        <CharString name="dvDDxA">
          -59 589 632 -32 callsubr
          -80 -794 rmoveto
          -97 callgsubr
          endchar
        </CharString>
        <CharString name="dvDH">
          -200 626 329 rmoveto
          -113 hlineto
          -81 -61 -56 -113 -66 -64 23 63 2 callsubr
          -123 108 -57 141 183 116 99 146 vhcurveto
          endchar
        </CharString>
        <CharString name="dvDHA">
          96 751 632 rmoveto
          152 callsubr
          -72 -51 28 58 2 callsubr
          -118 100 -61 122 97 74 37 63 42 vhcurveto
          -185 55 callsubr
        </CharString>
        <CharString name="dvDH_MA">
          658 1307 -72 callsubr
          -779 -108 268 -172 -75 vlineto
          -111 -90 -55 -111 -12 hvcurveto
          -1 vlineto
          -59 -12 -56 -42 -101 hhcurveto
          -66 -9 callsubr
          102 -57 136 100 76 26 46 48 vhcurveto
          -50 35 61 -30 78 hhcurveto
          131 71 82 138 hvcurveto
          59 149 -355 131 632 vlineto
          -485 -447 rmoveto
          -48 -35 32 53 54 39 31 57 301 callsubr
          -55 vhcurveto
          354 275 38 callgsubr
          endchar
        </CharString>
        <CharString name="dvDH_NA">
          634 1290 -72 callsubr
          -762 -108 522 188 callgsubr
          -118 -96 -62 -120 -12 hvcurveto
          0 vlineto
          -83 -14 -61 -42 -99 hhcurveto
          -68 -14 callsubr
          131 103 78 37 68 42 vhcurveto
          -65 37 72 -37 81 202 callsubr
          -548 -339 rmoveto
          58 42 40 59 235 callgsubr
          -60 -41 40 57 vhcurveto
          endchar
        </CharString>
        <CharString name="dvDH_N_YA">
          1093 1742 -72 callsubr
          -1225 -108 690 197 callgsubr
          -310 hlineto
          -115 -95 -59 -114 -15 hvcurveto
          -63 -22 -55 -34 -94 hhcurveto
          -68 -14 callsubr
          131 97 71 29 54 43 vhcurveto
          -75 34 77 -42 88 hhcurveto
          111 92 68 259 callsubr
          hvcurveto
          141 hlineto
          -160 16 93 -102 156 140 callsubr
          vlineto
          -1005 -376 104 callgsubr
          702 -55 rmoveto
          -101 -60 68 98 -10 hvcurveto
          115 14 62 69 105 vvcurveto
          77 167 -260 vlineto
          -100 -69 -71 -104 vhcurveto
          endchar
        </CharString>
        <CharString name="dvDH_R">
          -200 626 329 rmoveto
          -113 hlineto
          -81 -61 -56 -113 -66 -64 23 63 2 callsubr
          -123 108 -57 141 12 11 0 1 12 vhcurveto
          -147 -153 271 callsubr
          197 225 rlineto
          47 43 27 59 70 vvcurveto
          endchar
        </CharString>
        <CharString name="dvDH_RA">
          96 492 160 rmoveto
          0 vlineto
          8 8 7 9 6 9 rrcurveto
          -186 -5 callgsubr
          109 152 callsubr
          -72 -51 28 58 2 callsubr
          -116 99 -60 122 vhcurveto
          -151 -156 rlineto
          141 hlineto
          endchar
        </CharString>
        <CharString name="dvDH_VA">
          475 1037 632 rmoveto
          289 callsubr
          hlineto
          -52 callgsubr
          -105 -76 -68 -104 -16 callsubr
          -123 102 -57 137 293 callgsubr
          vhcurveto
          130 callgsubr
          127 vlineto
          -260 61 callsubr
        </CharString>
        <CharString name="dvDH_YA">
          570 1219 -72 callsubr
          -691 -108 156 153 callgsubr
          -1 -19 -18 vvcurveto
          -2 vlineto
          0 vlineto
          -106 1 -57 -75 -114 hhcurveto
          -66 -14 callsubr
          141 104 79 43 73 45 vhcurveto
          -68 44 76 -39 102 195 callsubr
          vlineto
          -303 -431 rmoveto
          -107 -62 163 callgsubr
          122 302 callsubr
          166 279 callsubr
          endchar
        </CharString>
        <CharString name="dvD_BA">
          132 callgsubr
          -113 79 -88 125 66 54 28 53 31 vhcurveto
          30 callgsubr
        </CharString>
        <CharString name="dvD_BHA">
          789 673 -306 -61 callsubr
          91 938 -3 callgsubr
          347 -447 -48 callsubr
          139 -355 129 632 112 108 -241 -280 -139 -4 callgsubr
        </CharString>
        <CharString name="dvD_B_RA">
          132 callgsubr
          -100 62 -80 100 -18 vhcurveto
          -112 -115 rlineto
          133 hlineto
          134 149 15 12 13 15 10 17 rlinecurve
          30 callgsubr
        </CharString>
        <CharString name="dvD_DA">
          -66 511 -76 rmoveto
          274 -107 vlineto
          -26 -7 -23 -12 -17 vhcurveto
          0 vlineto
          0 vlineto
          -27 -19 -33 -15 -45 hhcurveto
          -65 -36 31 48 42 27 28 60 hvcurveto
          69 93 -66 hlineto
          -63 -32 28 39 51 48 17 60 hvcurveto
          150 165 143 108 -610 -108 341 -80 hlineto
          1 -21 -20 0 -20 hhcurveto
          -108 -93 -35 -106 -70 48 -44 64 -13 hvcurveto
          -3 vlineto
          -66 -12 -44 -49 -71 vvcurveto
          -105 87 -51 96 77 46 29 35 25 vhcurveto
          -134 vlineto
          endchar
        </CharString>
        <CharString name="dvD_DHA">
          285 934 -72 callsubr
          -955 -108 694 -91 -50 vlineto
          -150 -116 -81 -155 -85 31 -61 48 -37 hvcurveto
          -81 -17 -53 -49 -69 hhcurveto
          239 callgsubr
          47 37 35 76 -4 hvcurveto
          106 vlineto
          -167 12 -73 -78 -97 vvcurveto
          -91 61 -44 59 -16 vhcurveto
          70 callgsubr
        </CharString>
        <CharString name="dvD_GA">
          158 callgsubr
          -110 vlineto
          -38 -11 -44 249 callgsubr
          -103 62 -66 111 125 53 82 106 vhcurveto
          91 vlineto
          47 6 38 21 24 30 rrcurveto
          -413 119 185 callsubr
        </CharString>
        <CharString name="dvD_GHA">
          285 297 -8 rmoveto
          239 callgsubr
          44 34 34 64 27 30 -7 -13 30 hvcurveto
          -11 -29 -7 -32 -37 vvcurveto
          -85 31 -61 48 -37 vhcurveto
          -81 -17 -53 -49 -69 hhcurveto
          637 640 -84 callgsubr
          -955 -108 694 -91 -50 vlineto
          -74 -66 -20 -39 -48 hvcurveto
          30 -48 -61 19 -58 hhcurveto
          -142 -63 -74 -91 -91 61 -44 59 -16 hvcurveto
          70 callgsubr
        </CharString>
        <CharString name="dvD_G_RA">
          158 callgsubr
          -52 vlineto
          -38 -11 -43 249 callgsubr
          -104 62 -65 111 125 53 82 105 vhcurveto
          33 vlineto
          47 6 38 21 24 30 rrcurveto
          -166 vlineto
          -305 -304 rlineto
          126 hlineto
          186 195 rlineto
          -138 112 185 callsubr
        </CharString>
        <CharString name="dvD_MA">
          220 205 -79 rmoveto
          54 42 24 47 vhcurveto
          64 -54 hlineto
          -61 -26 -37 -49 -47 -31 31 43 vhcurveto
          271 184 rmoveto
          1 183 rlineto
          -195 hlineto
          -53 -38 25 45 51 38 22 52 hvcurveto
          177 201 167 -527 hlineto
          243 527 -84 callgsubr
          -889 192 callsubr
          -91 -66 vlineto
          -115 -88 -50 -130 -116 91 -60 115 hvcurveto
          91 -80 -57 hlineto
          -115 -97 -48 -132 -114 76 -71 117 128 65 81 136 hvcurveto
          42 148 -298 129 931 vlineto
          endchar
        </CharString>
        <CharString name="dvD_NA">
          769 673 -306 -61 callsubr
          217 599 58 callgsubr
          -1438 -108 397 -91 -50 vlineto
          -45 callgsubr
          671 220 callsubr
          hlineto
          -94 callsubr
          192 callgsubr
          -5 callgsubr
          hlineto
          endchar
        </CharString>
        <CharString name="dvD_R">
          -18 673 -306 -61 callsubr
          91 938 -84 callgsubr
          -652 269 callgsubr
          -128 75 -74 99 -17 hvcurveto
          -27 callgsubr
        </CharString>
        <CharString name="dvD_RA">
          -18 631 -72 callsubr
          -652 269 callgsubr
          -128 75 -74 99 -17 hvcurveto
          -27 callgsubr
        </CharString>
        <CharString name="dvD_VA">
          -20 629 -72 callsubr
          -650 -108 397 291 callsubr
          -70 -135 -81 37 -55 53 -30 hvcurveto
          107 callsubr
          -206 -715 165 callgsubr
          endchar
        </CharString>
        <CharString name="dvD_YA">
          80 304 131 rmoveto
          -71 -45 27 51 50 40 20 55 hvcurveto
          60 98 -58 hlineto
          -55 -42 21 45 31 18 17 25 10 hvcurveto
          -6 vlineto
          4 7 rlineto
          5 15 17 2 17 hhcurveto
          70 123 137 -312 hlineto
          -135 -84 -54 -103 vhcurveto
          425 501 -84 callgsubr
          -737 -108 239 -75 vlineto
          -9 -9 0 -10 hhcurveto
          -65 -81 -26 -89 -72 58 -33 54 -9 hvcurveto
          -4 vlineto
          -52 -10 -58 -36 -82 vvcurveto
          -104 92 -57 124 105 72 35 68 39 vhcurveto
          -138 127 -55 callsubr
        </CharString>
        <CharString name="dvE">
          24 673 -72 callsubr
          -694 -108 110 vlineto
          245 callsubr
          144 92 83 144 vhcurveto
          57 callgsubr
          vlineto
          endchar
        </CharString>
        <CharString name="dvEcandra">
          24 673 -72 callsubr
          -694 -108 110 vlineto
          245 callsubr
          144 92 83 144 vhcurveto
          57 callgsubr
          vlineto
          -23 391 1 callsubr
        </CharString>
        <CharString name="dvEight">
          18 callgsubr
        </CharString>
        <CharString name="dvEyelash">
          -297 375 433 rmoveto
          -8 -20 -25 -9 -38 hhcurveto
          -68 -68 29 87 -3 294 callgsubr
          -156 4 121 -54 119 hhcurveto
          59 56 17 22 35 hvcurveto
          -11 271 -84 callgsubr
          -434 265 callsubr
        </CharString>
        <CharString name="dvEyelash_HA">
          168 747 71 -87 callsubr
          -837 -108 581 178 callgsubr
          -13 2 -12 3 -11 hvcurveto
          -1 -9 -8 -1 -11 hhcurveto
          -60 -56 33 73 294 callgsubr
          -141 3 108 -67 106 hhcurveto
          55 34 13 13 23 hvcurveto
          2 -1 2 -1 2 -1 80 callsubr
        </CharString>
        <CharString name="dvEyelash_YA">
          341 576 201 rmoveto
          -88 callsubr
          -1011 -108 476 -54 vlineto
          -99 -46 -48 -112 vhcurveto
          -64 2 -73 31 81 vvcurveto
          -123 hlineto
          4 -151 119 -58 122 -5 rrcurveto
          -146 16 93 -92 158 hhcurveto
          94 -77 callgsubr
        </CharString>
        <CharString name="dvFive">
          56 callsubr
        </CharString>
        <CharString name="dvFour">
          113 callgsubr
        </CharString>
        <CharString name="dvG">
          -107 542 -72 callsubr
          -563 213 callgsubr
          vlineto
          -101 callgsubr
          vlineto
          endchar
        </CharString>
        <CharString name="dvGA">
          161 698 hmoveto
          -65 callsubr
          -830 213 callgsubr
          vlineto
          -101 callgsubr
          145 -632 vlineto
          endchar
        </CharString>
        <CharString name="dvGH">
          -230 593 -72 callsubr
          -614 17 callsubr
          -121 97 -62 153 170 101 117 143 vhcurveto
          159 callsubr
        </CharString>
        <CharString name="dvGHA">
          75 322 103 callsubr
          37 60 hvcurveto
          52 149 callsubr
          -745 17 callsubr
          -121 97 -62 122 83 69 33 58 41 vhcurveto
          -189 -9 callgsubr
        </CharString>
        <CharString name="dvGH_MA">
          609 1017 460 38 callgsubr
          -354 -447 rmoveto
          -93 callgsubr
          -350 19 312 callsubr
          56 104 -46 259 callgsubr
          533 -172 -76 vlineto
          -102 -83 -46 -93 -22 hvcurveto
          -4 -12 rlineto
          -80 -25 -52 -25 -71 hhcurveto
          945 428 -84 callgsubr
          -1279 17 callsubr
          -121 88 -62 129 80 70 24 53 41 vhcurveto
          -62 33 66 -37 86 33 callsubr
        </CharString>
        <CharString name="dvGH_NA">
          589 578 293 -100 callsubr
          -265 -89 312 callsubr
          48 104 -38 259 callgsubr
          783 188 callgsubr
          -111 -91 -54 -105 -21 hvcurveto
          -3 -12 rlineto
          -95 -28 -47 -29 -75 hhcurveto
          925 428 -84 callgsubr
          -1259 17 callsubr
          -121 87 -62 127 85 75 26 66 41 vhcurveto
          -66 37 72 -37 82 -11 callgsubr
        </CharString>
        <CharString name="dvGH_R">
          -230 593 -72 callsubr
          -614 17 callsubr
          -121 97 -62 153 vhcurveto
          2 hlineto
          -143 -149 rlineto
          139 hlineto
          192 217 rlineto
          52 47 29 69 76 vvcurveto
          159 callsubr
        </CharString>
        <CharString name="dvGH_RA">
          75 322 103 callsubr
          39 61 hvcurveto
          49 149 callsubr
          -745 17 callsubr
          -113 91 -59 117 -4 vhcurveto
          -150 -156 271 callsubr
          204 229 rlineto
          -2 hlineto
          5 5 3 4 4 5 rrcurveto
          -192 -9 callgsubr
        </CharString>
        <CharString name="dvGH_YA">
          544 322 103 callsubr
          37 60 hvcurveto
          52 442 -23 callgsubr
          -11 0 -12 1 -10 vhcurveto
          -80 -7 -58 -58 -96 hhcurveto
          456 -3 rmoveto
          -88 callsubr
          -1213 17 callsubr
          -121 97 -62 153 94 73 36 56 46 vhcurveto
          -62 45 73 -35 98 hhcurveto
          94 -77 callgsubr
        </CharString>
        <CharString name="dvG_BA">
          537 1076 226 callsubr
          -1207 213 callgsubr
          vlineto
          -101 callgsubr
          527 109 callgsubr
          -138 -104 -96 -142 111 callsubr
          hvcurveto
          84 callsubr
        </CharString>
        <CharString name="dvG_BHA">
          676 741 244 callgsubr
          56 301 callsubr
          -54 vhcurveto
          204 251 callgsubr
          139 -355 129 632 112 114 callgsubr
          -26 -22 -3 -6 -20 vhcurveto
          -704 213 callgsubr
          hlineto
          -101 callgsubr
          301 vlineto
          4 9 11 3 10 hhcurveto
          49 21 -39 -57 hvcurveto
          -83 -75 vlineto
          -119 -95 -63 -128 115 callgsubr
          132 70 82 138 hvcurveto
          endchar
        </CharString>
        <CharString name="dvG_BH_YA">
          1111 741 -8 callsubr
          105 vlineto
          -160 8 96 -102 164 3 callgsubr
          -149 266 callsubr
          -703 213 callgsubr
          hlineto
          -101 callgsubr
          143 vlineto
          147 callsubr
          -74 vlineto
          -119 -95 -63 -128 115 callgsubr
          131 71 82 138 hvcurveto
          402 -95 13 callgsubr
          endchar
        </CharString>
        <CharString name="dvG_DA">
          460 1108 258 callgsubr
          -1130 213 callgsubr
          hlineto
          -101 callgsubr
          429 -91 -50 vlineto
          29 callsubr
          endchar
        </CharString>
        <CharString name="dvG_DHA">
          567 1107 hmoveto
          632 109 152 callsubr
          -72 -51 28 58 0 callgsubr
          -22 246 callsubr
          -674 213 callgsubr
          hlineto
          -101 callgsubr
          119 vlineto
          -5 -17 -3 -18 -20 vvcurveto
          -16 callsubr
          -118 100 -61 122 97 74 37 63 42 vhcurveto
          -185 vlineto
          endchar
        </CharString>
        <CharString name="dvG_DH_VA">
          964 1502 hmoveto
          632 289 callsubr
          vlineto
          -52 callgsubr
          -22 246 callsubr
          -674 213 callgsubr
          hlineto
          -101 callgsubr
          119 vlineto
          -5 -17 -3 -18 -20 vvcurveto
          -16 callsubr
          -123 102 -57 137 293 callgsubr
          vhcurveto
          130 callgsubr
          vlineto
          -133 61 callsubr
        </CharString>
        <CharString name="dvG_DH_YA">
          1035 1270 201 -5 callsubr
          -674 213 callgsubr
          hlineto
          -101 callgsubr
          119 vlineto
          -5 -17 -3 -18 -20 vvcurveto
          -16 callsubr
          -123 108 -57 141 104 79 43 73 45 vhcurveto
          -68 44 76 -39 102 122 callsubr
          vlineto
          endchar
        </CharString>
        <CharString name="dvG_GA">
          641 1180 hmoveto
          -65 callsubr
          -1312 213 callgsubr
          vlineto
          -101 callgsubr
          352 -248 vlineto
          -101 callgsubr
          145 -632 vlineto
          endchar
        </CharString>
        <CharString name="dvG_GHA">
          545 792 103 callsubr
          37 60 hvcurveto
          52 149 callsubr
          -1215 213 callgsubr
          vlineto
          -101 callgsubr
          132 -58 vlineto
          -89 45 -41 58 -13 vhcurveto
          -3 vlineto
          -60 -14 -57 -51 -82 vvcurveto
          -121 97 -62 122 83 69 33 58 41 vhcurveto
          -189 -9 callgsubr
        </CharString>
        <CharString name="dvG_JA">
          700 1349 -72 callsubr
          -1370 213 callgsubr
          vlineto
          -101 callgsubr
          685 -140 -269 -162 vlineto
          -90 callgsubr
          143 97 callgsubr
          endchar
        </CharString>
        <CharString name="dvG_LA">
          759 1077 44 rmoveto
          -62 callsubr
          -1428 213 callgsubr
          vlineto
          -101 callgsubr
          643 -74 callgsubr
          endchar
        </CharString>
        <CharString name="dvG_MA">
          681 1089 460 38 callgsubr
          -354 -447 rmoveto
          -93 callgsubr
          595 447 -84 callgsubr
          -1351 213 callgsubr
          vlineto
          -101 callgsubr
          396 133 callsubr
        </CharString>
        <CharString name="dvG_NA">
          663 653 94 callsubr
          -1334 213 callgsubr
          vlineto
          -101 callgsubr
          649 188 callgsubr
          -94 callsubr
          192 callgsubr
          -5 callgsubr
          hlineto
          endchar
        </CharString>
        <CharString name="dvG_NNA">
          725 768 268 rmoveto
          -59 callsubr
          606 364 -84 callgsubr
          -1395 213 callgsubr
          vlineto
          -101 callgsubr
          148 callsubr
        </CharString>
        <CharString name="dvG_N_YA">
          1118 653 256 rmoveto
          -31 callgsubr
          -1789 213 callgsubr
          vlineto
          -101 callgsubr
          810 73 callsubr
        </CharString>
        <CharString name="dvG_R">
          -107 596 366 rmoveto
          -401 -386 rlineto
          149 hlineto
          252 253 rlineto
          399 vmoveto
          108 -617 -35 callgsubr
          vlineto
          endchar
        </CharString>
        <CharString name="dvG_RA">
          42 callgsubr
          endchar
        </CharString>
        <CharString name="dvG_R_YA">
          598 833 201 rmoveto
          -88 callsubr
          -1268 -35 callgsubr
          288 -23 callgsubr
          -22 2 -21 3 -20 vhcurveto
          -347 -332 rlineto
          149 hlineto
          232 232 rlineto
          -75 43 78 -44 109 hhcurveto
          94 -77 callgsubr
        </CharString>
        <CharString name="dvG_SA">
          669 905 556 -18 callgsubr
          -1339 213 callgsubr
          vlineto
          -101 callgsubr
          353 -76 vlineto
          -86 -43 -59 -111 vhcurveto
          -81 -202 hlineto
          109 callsubr
        </CharString>
        <CharString name="dvG_VA">
          518 796 178 -81 callgsubr
          -1188 213 callgsubr
          hlineto
          -101 callgsubr
          507 -169 vlineto
          65 callgsubr
        </CharString>
        <CharString name="dvG_YA">
          598 833 201 rmoveto
          -88 callsubr
          -1268 213 callgsubr
          vlineto
          -101 callgsubr
          288 49 callsubr
        </CharString>
        <CharString name="dvGx">
          -107 542 -72 callsubr
          -563 213 callgsubr
          vlineto
          -101 callgsubr
          vlineto
          -109 -589 rmoveto
          -97 callgsubr
          endchar
        </CharString>
        <CharString name="dvGxA">
          160 698 hmoveto
          -65 callsubr
          -830 213 callgsubr
          vlineto
          -101 callgsubr
          145 -632 vlineto
          -254 43 rmoveto
          -97 callgsubr
          endchar
        </CharString>
        <CharString name="dvGx_R">
          -107 596 366 rmoveto
          -401 -386 rlineto
          149 hlineto
          252 253 rlineto
          399 vmoveto
          108 -617 -35 callgsubr
          vlineto
          -251 -534 -25 callgsubr
          endchar
        </CharString>
        <CharString name="dvGx_RA">
          42 callgsubr
          -399 98 -25 callgsubr
          endchar
        </CharString>
        <CharString name="dvH">
          -42 537 71 -87 callsubr
          -627 304 callsubr
          -87 -100 hlineto
          -98 -63 -47 -81 -54 28 -39 45 -24 hvcurveto
          34 callsubr
          -39 -459 -61 callsubr
          endchar
        </CharString>
        <CharString name="dvHA">
          -42 537 71 -87 callsubr
          -627 304 callsubr
          -87 -100 hlineto
          -98 -63 -47 -81 -54 28 -39 45 -24 hvcurveto
          85 callgsubr
        </CharString>
        <CharString name="dvHA_mU">
          -42 343 -360 rmoveto
          138 87 67 113 117 -75 65 -150 -92 -60 46 73 66 45 48 70 74 35 -53 -55 hvcurveto
          121 hlineto
          108 -65 103 -163 200 callsubr
          vhcurveto
          -25 11 -16 20 27 vvcurveto
          45 37 15 42 vhcurveto
          177 180 133 108 -627 304 callsubr
          -87 -100 hlineto
          199 callsubr
          44 -24 hvcurveto
          -60 -36 -36 -62 -78 vvcurveto
          -137 100 -86 178 78 36 -31 -50 -50 -43 -30 -71 -77 -59 35 77 3 vhcurveto
          -114 hlineto
          -145 -4 117 -67 134 hhcurveto
          endchar
        </CharString>
        <CharString name="dvHA_mUU">
          -42 322 -346 rmoveto
          92 -30 vlineto
          -46 -40 25 50 52 45 29 58 98 55 -69 -120 hvcurveto
          -54 105 vlineto
          15 1 16 16 vvcurveto
          156 -68 140 -189 vhcurveto
          0 vlineto
          -74 1 -46 46 72 vvcurveto
          66 45 48 70 74 37 -53 -59 -2 vhcurveto
          121 hlineto
          110 3 -68 105 -163 hhcurveto
          286 callsubr
          45 37 15 42 vhcurveto
          177 180 133 108 -627 304 callsubr
          -87 -100 hlineto
          199 callsubr
          43 -24 hvcurveto
          -59 -36 -36 -61 -78 vvcurveto
          -76 33 -60 61 -36 vhcurveto
          -36 -31 -21 -45 -56 vvcurveto
          -113 83 -56 99 13 12 1 1 13 vhcurveto
          endchar
        </CharString>
        <CharString name="dvHA_mvR">
          45 411 -237 rmoveto
          87 vlineto
          -140 -106 79 138 113 66 86 140 89 46 -20 -46 21 hvcurveto
          1 -22 -22 1 -29 hhcurveto
          -106 -56 -54 -79 -97 81 -38 78 34 28 4 9 25 hvcurveto
          77 vlineto
          -7 -19 -26 -4 -26 hhcurveto
          -42 -39 17 42 35 23 27 51 hvcurveto
          161 hlineto
          124 -7 -82 92 -165 hhcurveto
          -40 -36 -5 -8 -32 hvcurveto
          -28 245 callgsubr
          311 180 97 108 -715 -108 508 -90 -241 175 callgsubr
          -73 -48 -39 -81 -100 vvcurveto
          -188 141 -125 208 5 vhcurveto
          endchar
        </CharString>
        <CharString name="dvH_LA">
          77 375 -227 rmoveto
          83 vlineto
          -115 -98 78 133 115 67 87 142 88 50 -38 -48 21 hvcurveto
          -27 -13 -16 -22 -9 -23 rrcurveto
          -2 hlineto
          35 -13 -30 32 -55 hhcurveto
          -68 -54 -42 -85 -80 48 -58 92 6 6 0 1 7 hvcurveto
          67 vlineto
          -1 -6 -5 0 -4 hhcurveto
          -42 -23 26 43 35 19 26 34 34 19 -30 -42 hvcurveto
          -10 71 10 vlineto
          43 20 29 35 32 21 -26 -36 -42 -25 -26 -41 -5 -5 0 1 -5 vhcurveto
          -67 vlineto
          -1 8 6 0 5 hhcurveto
          93 48 58 80 68 -36 41 -49 13 hvcurveto
          94 -24 -81 69 -142 hhcurveto
          -40 -36 -5 -8 -32 hvcurveto
          -28 245 callgsubr
          315 180 124 108 -746 -108 513 -90 -246 175 callgsubr
          -73 -48 -39 -81 -100 vvcurveto
          -181 135 -122 178 5 vhcurveto
          endchar
        </CharString>
        <CharString name="dvH_MA">
          675 217 392 rmoveto
          45 37 15 42 vhcurveto
          177 180 341 -172 -76 hlineto
          -95 -79 -40 -82 -28 hvcurveto
          -228 274 callgsubr
          512 -207 rmoveto
          -93 callgsubr
          354 275 38 callgsubr
          241 hmoveto
          108 -1345 92 callgsubr
          73 hvcurveto
          219 hlineto
          -97 15 78 -62 111 33 callsubr
        </CharString>
        <CharString name="dvH_NA">
          661 217 392 rmoveto
          45 37 15 42 vhcurveto
          177 180 589 220 callsubr
          hlineto
          -111 -92 -55 -106 -20 hvcurveto
          -222 274 callgsubr
          425 -99 58 callgsubr
          -1323 92 callgsubr
          74 hvcurveto
          224 hlineto
          -94 25 85 -54 99 -11 callgsubr
        </CharString>
        <CharString name="dvH_NNA">
          63 372 16 rmoveto
          -30 -18 25 34 hvcurveto
          188 vlineto
          2 15 16 1 18 hhcurveto
          17 16 -1 -2 14 hvcurveto
          -188 vlineto
          -34 -17 -25 -31 vhcurveto
          -12 -243 rmoveto
          87 vlineto
          -104 3 -89 71 133 vvcurveto
          80 15 65 68 32 vhcurveto
          -162 vlineto
          -72 41 -57 81 81 41 55 74 vhcurveto
          160 vlineto
          62 -34 13 -67 -85 vvcurveto
          -123 93 123 vlineto
          162 -76 132 -216 -41 -36 -5 -8 -33 vhcurveto
          -29 245 callgsubr
          316 180 113 108 -736 -108 513 -90 -246 175 callgsubr
          -73 -48 -39 255 callgsubr
        </CharString>
        <CharString name="dvH_R">
          10 callgsubr
          -40 -454 -61 callsubr
          endchar
        </CharString>
        <CharString name="dvH_RA">
          10 callgsubr
          endchar
        </CharString>
        <CharString name="dvH_VA">
          26 440 -6 rmoveto
          -43 -31 29 46 44 33 29 41 hvcurveto
          51 -1 23 -37 -36 vvcurveto
          -1 vlineto
          -34 -23 -39 -51 vhcurveto
          -80 -221 rmoveto
          -1 87 rlineto
          -101 3 -88 71 133 vvcurveto
          113 69 80 121 85 54 -43 -62 12 vhcurveto
          -19 27 -33 20 -44 -1 -79 -1 -58 -51 1 -80 rrcurveto
          -77 52 -58 84 48 35 23 33 19 vhcurveto
          -111 93 219 vlineto
          138 -85 114 -180 -31 -30 -4 -8 -27 vhcurveto
          -30 11 -17 20 27 vvcurveto
          41 35 15 41 vhcurveto
          268 180 -50 callsubr
          -686 -108 463 -90 -196 175 callgsubr
          -68 -48 -44 255 callgsubr
        </CharString>
        <CharString name="dvH_YA">
          265 556 -20 rmoveto
          -68 -38 39 49 -9 hvcurveto
          66 8 54 38 81 vvcurveto
          105 -89 50 -125 -34 -32 -4 -8 -29 vhcurveto
          -27 12 -16 19 27 vvcurveto
          41 35 15 39 vhcurveto
          242 180 159 -488 hlineto
          -90 -36 -74 -92 vhcurveto
          245 -133 rmoveto
          785 272 callgsubr
          -934 -108 433 -90 -168 vlineto
          -97 -61 -45 -76 -55 33 -42 50 -24 hvcurveto
          -70 -47 -39 -78 -99 vvcurveto
          -179 133 -121 181 2 vhcurveto
          90 vlineto
          -113 3 -90 73 128 vvcurveto
          108 65 76 111 56 49 -20 -51 -46 -35 -22 -75 vhcurveto
          -7 hlineto
          -1 -9 -1 -10 -10 vvcurveto
          -108 67 -88 132 74 50 30 49 32 vhcurveto
          -124 vlineto
          endchar
        </CharString>
        <CharString name="dvI">
          -49 606 -72 callsubr
          -633 40 callsubr
          132 hlineto
          74 callsubr
          hlineto
          endchar
        </CharString>
        <CharString name="dvII">
          -49 208 51 rmoveto
          74 callsubr
          139 108 -141 69 hlineto
          169 callsubr
          -68 -372 40 callsubr
          hlineto
          endchar
        </CharString>
        <CharString name="dvII_Anusvara">
          -49 208 51 rmoveto
          74 callsubr
          139 108 -142 76 hlineto
          72 34 45 63 59 33 -40 -45 2 vhcurveto
          104 hlineto
          117 2 -76 68 -121 hhcurveto
          -152 -63 -106 -110 hvcurveto
          -77 -376 40 callsubr
          hlineto
          399 914 15 callgsubr
        </CharString>
        <CharString name="dvJ">
          -80 701 382 rmoveto
          110 -337 -162 vlineto
          -90 callgsubr
          vlineto
          211 250 -84 callgsubr
          -722 265 callsubr
        </CharString>
        <CharString name="dvJA">
          141 callgsubr
          654 -140 -269 -162 vlineto
          -90 callgsubr
          143 97 callgsubr
          endchar
        </CharString>
        <CharString name="dvJH">
          -64 212 50 rmoveto
          -20 17 43 -42 84 hhcurveto
          110 58 66 86 38 -10 31 -17 23 hvcurveto
          192 97 -412 hlineto
          5 callsubr
          222 108 -710 116 callsubr
          endchar
        </CharString>
        <CharString name="dvJHA">
          234 277 329 rmoveto
          5 callsubr
          178 -303 hlineto
          126 -329 106 callsubr
          -903 -66 callsubr
          148 -232 hlineto
          endchar
        </CharString>
        <CharString name="dvJH_MA">
          755 1162 460 38 callgsubr
          -354 -447 rmoveto
          -93 callgsubr
          -531 144 rmoveto
          5 callsubr
          426 -172 -76 hlineto
          -99 -81 -43 -88 -25 hvcurveto
          791 303 -84 callgsubr
          -1424 -66 callsubr
          110 hlineto
          -95 16 77 -61 110 33 callsubr
        </CharString>
        <CharString name="dvJH_NA">
          728 277 329 rmoveto
          5 callsubr
          670 220 callsubr
          hlineto
          -114 -94 -58 -112 -16 hvcurveto
          113 -36 58 callgsubr
          -1398 -66 callsubr
          112 hlineto
          -92 26 84 -53 98 -11 callgsubr
        </CharString>
        <CharString name="dvJH_R">
          -64 212 50 rmoveto
          -20 17 43 -42 84 hhcurveto
          110 58 66 86 38 -10 31 -17 23 hvcurveto
          238 97 -458 hlineto
          5 callsubr
          268 108 -756 116 callsubr
          523 292 rmoveto
          -282 -322 rlineto
          130 hlineto
          152 193 rlineto
          endchar
        </CharString>
        <CharString name="dvJH_RA">
          308 277 329 rmoveto
          5 callsubr
          252 -303 hlineto
          127 -329 151 callgsubr
          -977 -66 callsubr
          226 -29 hlineto
          -270 -314 rlineto
          130 hlineto
          140 173 rlineto
          -62 vlineto
          endchar
        </CharString>
        <CharString name="dvJH_YA">
          664 277 329 rmoveto
          5 callsubr
          311 -54 hlineto
          -99 -46 6 callsubr
          -16 1 -15 1 -15 vhcurveto
          294 -128 rmoveto
          -88 callsubr
          -1334 -66 callsubr
          134 hlineto
          -87 41 82 -52 118 hhcurveto
          94 -77 callgsubr
        </CharString>
        <CharString name="dvJ_BA">
          608 876 164 rmoveto
          -84 -72 56 94 29 7 25 12 22 hvcurveto
          239 -191 rlineto
          -21 -25 -34 -14 -43 hhcurveto
          271 -164 151 callgsubr
          -1278 -108 1043 109 callgsubr
          -66 -58 -22 -38 -43 hvcurveto
          -318 -162 hlineto
          -90 callgsubr
          126 vlineto
          -6 263 callgsubr
          111 callsubr
          vhcurveto
          -151 vlineto
          -146 467 rmoveto
          99 227 callsubr
          -25 -11 -23 135 callsubr
          27 35 12 39 hhcurveto
          endchar
        </CharString>
        <CharString name="dvJ_DA">
          536 1184 258 callgsubr
          -1206 -108 950 -91 -50 hlineto
          -68 -61 -17 -32 -47 hvcurveto
          -339 -162 hlineto
          -89 callgsubr
          56 133 vlineto
          -7 -23 -4 -26 -29 vvcurveto
          -150 -27 callsubr
        </CharString>
        <CharString name="dvJ_DDA">
          470 1117 -72 callsubr
          -1138 -108 892 -92 -88 vlineto
          -57 -53 -15 -33 -34 hvcurveto
          -275 -162 hlineto
          -90 callgsubr
          111 vlineto
          -119 7 106 -25 78 hhcurveto
          -38 callsubr
        </CharString>
        <CharString name="dvJ_JA">
          791 1440 -72 callsubr
          -1461 -108 1221 -140 -269 -162 vlineto
          228 callsubr
          -54 -31 41 64 vhcurveto
          162 -394 -162 vlineto
          -90 callgsubr
          137 -55 172 callsubr
          143 97 callgsubr
          endchar
        </CharString>
        <CharString name="dvJ_JHA">
          781 825 329 rmoveto
          5 callsubr
          178 -303 hlineto
          126 -329 106 callsubr
          -1451 -108 912 -90 -91 vlineto
          -57 -54 -15 -35 -34 hvcurveto
          -291 -162 hlineto
          -90 callgsubr
          127 vlineto
          4 -101 84 -39 81 -4 rrcurveto
          59 hlineto
          73 35 -32 -50 -39 -28 -34 -60 -68 -38 38 49 -5 hvcurveto
          -116 -251 122 131 hlineto
          -20 17 43 -42 84 hhcurveto
          110 58 66 86 38 -10 31 -17 23 hvcurveto
          148 -232 hlineto
          endchar
        </CharString>
        <CharString name="dvJ_J_NYA">
          739 1276 hmoveto
          -65 callsubr
          -1408 -108 1170 -141 -785 -161 vlineto
          228 callsubr
          -54 -31 41 64 vhcurveto
          161 -131 -164 147 callgsubr
          -89 141 133 81 89 126 vhcurveto
          61 324 vlineto
          67 60 -38 -75 -59 -37 -47 -68 -62 -50 38 65 -7 hvcurveto
          -121 -280 126 137 hlineto
          -38 31 54 -28 69 hhcurveto
          103 79 70 109 68 -29 48 -44 30 hvcurveto
          164 -388 hlineto
          endchar
        </CharString>
        <CharString name="dvJ_J_VA">
          1162 1439 178 -81 callgsubr
          -1831 -108 1595 58 callsubr
          -62 -52 -20 -34 -39 hvcurveto
          -321 -162 hlineto
          228 callsubr
          -54 -31 41 64 vhcurveto
          162 -394 -162 vlineto
          -90 callgsubr
          137 -55 172 callsubr
          130 vlineto
          -5 -21 -3 -23 -24 vvcurveto
          -68 callsubr
        </CharString>
        <CharString name="dvJ_J_YA">
          1246 1481 201 rmoveto
          -105 -61 67 99 -2 hvcurveto
          113 14 62 68 106 -82 callsubr
          -1916 -108 1382 277 callsubr
          -271 -125 hlineto
          -64 -31 -41 -56 -54 -32 41 64 vhcurveto
          125 -393 -125 vlineto
          228 callsubr
          -54 -31 41 64 vhcurveto
          125 -131 -128 147 callgsubr
          -89 141 133 81 89 126 vhcurveto
          18 138 -18 147 callgsubr
          -89 140 244 callsubr
          22 279 callgsubr
          95 -98 155 hhcurveto
          95 175 callsubr
          vlineto
          endchar
        </CharString>
        <CharString name="dvJ_KA">
          903 1112 hmoveto
          -92 callsubr
          -1572 -108 1009 31 callsubr
          -57 -48 -18 -32 -37 hvcurveto
          -322 -162 hlineto
          -90 callgsubr
          132 vlineto
          -5 -22 -3 -24 -26 vvcurveto
          44 callgsubr
          vhcurveto
          -162 61 callgsubr
        </CharString>
        <CharString name="dvJ_MA">
          754 1162 479 rmoveto
          -150 153 150 hlineto
          -355 -428 rmoveto
          -47 -36 32 52 53 40 32 57 hvcurveto
          71 -74 hlineto
          -57 -30 -38 -55 vhcurveto
          596 428 -84 callgsubr
          -1424 -108 913 -153 -528 -149 vlineto
          228 callsubr
          -54 -31 41 64 vhcurveto
          149 -131 -152 147 callgsubr
          -89 141 133 81 89 126 vhcurveto
          49 139 vlineto
          -15 -26 -9 -31 -39 vvcurveto
          -111 82 -74 123 131 71 79 133 vhcurveto
          66 150 -373 -9 callgsubr
        </CharString>
        <CharString name="dvJ_NA">
          741 723 286 rmoveto
          59 42 40 59 58 41 -41 -57 -57 -41 -41 -58 -61 -40 41 56 vhcurveto
          659 346 -84 callgsubr
          -1403 -108 1163 -140 -778 -162 vlineto
          -90 callgsubr
          137 vlineto
          -13 -27 -8 -32 -37 vvcurveto
          -129 99 -77 117 112 288 callsubr
          -385 -5 callgsubr
          hlineto
          endchar
        </CharString>
        <CharString name="dvJ_NY">
          -87 710 -72 callsubr
          -731 -108 vlineto
          731 -224 rmoveto
          103 -467 -103 33 vlineto
          39 callsubr
          endchar
        </CharString>
        <CharString name="dvJ_NYA">
          201 738 hmoveto
          -65 callsubr
          -870 -108 632 -121 -368 -103 33 vlineto
          39 callsubr
          164 -408 hlineto
          endchar
        </CharString>
        <CharString name="dvJ_NY_YA">
          689 924 201 rmoveto
          -102 -52 60 88 -12 hvcurveto
          115 18 58 76 112 -82 callsubr
          -1359 -108 824 -54 vlineto
          -76 -28 -46 -63 -17 vhcurveto
          45 -34 -59 27 -88 hhcurveto
          -288 -103 33 hlineto
          39 callsubr
          82 hlineto
          53 35 -24 -41 15 hvcurveto
          -153 19 85 -97 160 hhcurveto
          95 68 35 51 39 hvcurveto
          226 callgsubr
        </CharString>
        <CharString name="dvJ_R">
          67 callgsubr
          endchar
        </CharString>
        <CharString name="dvJ_RA">
          141 callgsubr
          660 -136 -275 204 callgsubr
          131 75 88 123 2 vhcurveto
          155 -69 hlineto
          -353 -366 rlineto
          142 hlineto
          214 235 rlineto
          -192 120 -55 callsubr
        </CharString>
        <CharString name="dvJ_TA">
          629 1278 -72 callsubr
          -1299 -108 1060 -138 -675 -164 vlineto
          228 callsubr
          -54 -31 41 64 vhcurveto
          164 -131 -167 147 callgsubr
          -89 141 133 81 89 126 vhcurveto
          56 176 vlineto
          -32 -36 -18 -48 -64 vvcurveto
          -154 112 -79 147 vhcurveto
          39 101 -19 hlineto
          -99 -51 55 86 92 65 47 95 hvcurveto
          134 -383 128 632 hlineto
          endchar
        </CharString>
        <CharString name="dvJ_TTA">
          571 1219 -72 callsubr
          -1240 -108 926 -91 -5 vlineto
          -74 -63 -17 -32 -48 hvcurveto
          -351 -162 hlineto
          -90 callgsubr
          137 vlineto
          -11 -29 -6 -34 -36 vvcurveto
          6 callgsubr
          vhcurveto
          -80 callgsubr
        </CharString>
        <CharString name="dvJ_VA">
          595 872 178 -81 callgsubr
          -1264 -108 1028 58 callsubr
          -62 -52 -20 -34 -39 hvcurveto
          -321 -162 hlineto
          -90 callgsubr
          130 vlineto
          -5 -21 -3 -23 -24 vvcurveto
          -68 callsubr
        </CharString>
        <CharString name="dvJ_YA">
          680 914 201 rmoveto
          -105 -61 67 99 -2 hvcurveto
          114 14 62 68 106 vvcurveto
          77 165 -260 vlineto
          -100 -69 -71 -104 -75 callsubr
          -1349 -108 815 277 callsubr
          -270 -125 hlineto
          228 callsubr
          -54 -31 41 64 vhcurveto
          125 -131 -128 147 callgsubr
          -89 141 244 callsubr
          23 279 callgsubr
          94 -98 156 hhcurveto
          94 66 34 50 40 hvcurveto
          -177 131 -55 callsubr
        </CharString>
        <CharString name="dvJx">
          -80 701 382 rmoveto
          110 -337 -162 vlineto
          -90 callgsubr
          vlineto
          211 250 -84 callgsubr
          -722 -108 vlineto
          378 128 callsubr
          endchar
        </CharString>
        <CharString name="dvJxA">
          141 callgsubr
          654 -140 -269 -162 vlineto
          -90 callgsubr
          143 97 callgsubr
          -405 128 callsubr
          endchar
        </CharString>
        <CharString name="dvJx_JxA">
          791 357 -32 rmoveto
          -97 callgsubr
          567 hmoveto
          -97 callgsubr
          516 664 -84 callgsubr
          -1461 -108 1221 -140 -269 -162 vlineto
          228 callsubr
          -54 -31 41 64 vhcurveto
          162 -394 -162 vlineto
          -90 callgsubr
          137 -55 172 callsubr
          143 97 callgsubr
          endchar
        </CharString>
        <CharString name="dvJx_R">
          67 callgsubr
          -69 80 -25 callgsubr
          endchar
        </CharString>
        <CharString name="dvJx_RA">
          141 callgsubr
          660 -136 -275 204 callgsubr
          131 75 88 123 2 vhcurveto
          155 -69 hlineto
          -353 -366 rlineto
          142 hlineto
          214 235 rlineto
          -192 120 632 vlineto
          -545 -595 -25 callgsubr
          endchar
        </CharString>
        <CharString name="dvJx_YA">
          680 1328 -72 callsubr
          -1349 -108 815 277 callsubr
          -270 -125 hlineto
          228 callsubr
          -54 -31 41 64 vhcurveto
          125 -131 -128 147 callgsubr
          -89 141 244 callsubr
          23 279 callgsubr
          94 -98 156 hhcurveto
          94 66 34 50 40 hvcurveto
          -177 131 632 vlineto
          -861 128 callsubr
          557 233 rmoveto
          -105 -61 67 99 -2 hvcurveto
          114 14 62 68 106 vvcurveto
          77 165 -260 vlineto
          -100 -69 -71 -104 vhcurveto
          endchar
        </CharString>
        <CharString name="dvK">
          46 callsubr
          -122 215 callsubr
          endchar
        </CharString>
        <CharString name="dvKA">
          348 557 hmoveto
          -92 callsubr
          -1017 -105 callgsubr
          61 callgsubr
        </CharString>
        <CharString name="dvKH">
          25 callsubr
          153 -307 -73 callsubr
          endchar
        </CharString>
        <CharString name="dvKHA">
          322 629 220 53 callgsubr
          -28 -99 89 callsubr
          -256 -15 -49 callsubr
          endchar
        </CharString>
        <CharString name="dvKH_KHA">
          991 522 325 -73 callsubr
          776 -105 rmoveto
          -59 -47 38 70 66 48 39 58 71 31 -54 -52 1 hvcurveto
          -53 -33 -54 -70 vhcurveto
          231 -220 106 callsubr
          -1661 -78 callgsubr
          49 44 11 22 34 hvcurveto
          -101 37 90 -56 125 hhcurveto
          109 75 56 72 43 hvcurveto
          173 callsubr
          -1056 140 callgsubr
          539 -107 vlineto
          -74 -27 -38 -47 -16 vhcurveto
          81 -26 -74 51 -102 hhcurveto
          -130 -94 -24 callgsubr
          669 hmoveto
          -92 -53 60 83 hvcurveto
          61 vlineto
          97 8 71 64 140 vvcurveto
          110 364 -161 vlineto
          36 -26 -42 25 -63 hhcurveto
          -112 -82 -84 -120 -66 23 -55 39 -37 hvcurveto
          -34 -21 -38 -30 -65 hhcurveto
          endchar
        </CharString>
        <CharString name="dvKH_MA">
          886 1293 460 38 callgsubr
          -771 -307 -73 callsubr
          417 -140 -29 callsubr
        </CharString>
        <CharString name="dvKH_NA">
          869 858 293 rmoveto
          58 41 -86 callgsubr
          -61 -40 40 57 vhcurveto
          -336 32 -73 callsubr
          -177 -219 rmoveto
          -79 callgsubr
          908 188 callgsubr
          -66 -55 -19 -37 -38 hvcurveto
          55 -36 -64 31 -83 hhcurveto
          -130 -88 -24 callgsubr
          1172 526 -84 callgsubr
          -1538 -78 callgsubr
          64 53 20 36 36 hvcurveto
          -56 37 64 -32 76 hhcurveto
          111 88 67 122 -10 callsubr
          hvcurveto
          177 callsubr
          endchar
        </CharString>
        <CharString name="dvKH_R">
          8 callsubr
          153 -307 -73 callsubr
          endchar
        </CharString>
        <CharString name="dvKH_RA">
          51 callgsubr
          285 358 53 callgsubr
          -284 -114 -49 callsubr
          endchar
        </CharString>
        <CharString name="dvKH_SHA">
          64 callsubr
          177 219 -22 callgsubr
        </CharString>
        <CharString name="dvKH_TA">
          738 522 325 -34 callgsubr
        </CharString>
        <CharString name="dvKH_VA">
          713 1251 hmoveto
          28 callsubr
          -469 147 -73 callsubr
          -177 -219 rmoveto
          -79 callgsubr
          756 -168 vlineto
          50 282 callsubr
          -76 -57 -29 -49 -36 hvcurveto
          40 -37 -56 21 -69 hhcurveto
          -130 -88 -24 callgsubr
          endchar
        </CharString>
        <CharString name="dvKH_YA">
          795 522 325 -45 callsubr
        </CharString>
        <CharString name="dvKHx">
          25 callsubr
          31 -779 rmoveto
          -97 callgsubr
          122 472 -73 callsubr
          endchar
        </CharString>
        <CharString name="dvKHxA">
          322 601 121 89 callsubr
          -201 -268 rmoveto
          -97 callgsubr
          229 367 53 callgsubr
          -284 -114 -49 callsubr
          endchar
        </CharString>
        <CharString name="dvKHx_MA">
          886 400 -147 rmoveto
          -97 callgsubr
          122 472 -73 callsubr
          771 135 38 callgsubr
          -354 -447 -29 callsubr
        </CharString>
        <CharString name="dvKHx_R">
          8 callsubr
          -203 -704 -25 callgsubr
          356 397 -73 callsubr
          endchar
        </CharString>
        <CharString name="dvKHx_RA">
          51 callgsubr
          -178 66 -25 callgsubr
          463 292 53 callgsubr
          -284 -114 -49 callsubr
          endchar
        </CharString>
        <CharString name="dvKHx_SA">
          870 422 -152 rmoveto
          -97 callgsubr
          100 477 -73 callsubr
          -177 -219 rmoveto
          -79 callgsubr
          610 -76 vlineto
          -86 -42 -59 -110 vhcurveto
          75 -30 -74 43 -97 62 callgsubr
          763 450 209 callgsubr
          -1540 -108 260 -93 vlineto
          166 callgsubr
          47 41 10 20 34 hvcurveto
          -93 20 71 -65 117 hhcurveto
          130 76 229 callgsubr
          -25 44 58 vhcurveto
          116 406 -319 -9 callgsubr
        </CharString>
        <CharString name="dvKHx_SHA">
          64 callsubr
          77 -258 rmoveto
          -97 callgsubr
          100 477 -22 callgsubr
        </CharString>
        <CharString name="dvKHx_TA">
          738 422 -152 rmoveto
          -97 callgsubr
          100 477 -34 callgsubr
        </CharString>
        <CharString name="dvKHx_VA">
          713 422 -152 rmoveto
          -97 callgsubr
          100 477 -73 callsubr
          729 -325 rmoveto
          28 callsubr
          -646 -72 rmoveto
          -79 callgsubr
          756 -168 vlineto
          50 282 callsubr
          -76 -57 -29 -49 -36 hvcurveto
          40 -37 -56 21 -69 hhcurveto
          -130 -88 -24 callgsubr
          endchar
        </CharString>
        <CharString name="dvKHx_YA">
          795 422 -152 rmoveto
          -97 callgsubr
          100 477 -45 callsubr
        </CharString>
        <CharString name="dvK_CA">
          721 986 196 rmoveto
          -67 -56 38 74 69 48 45 70 hvcurveto
          40 102 -297 hlineto
          -85 -53 -30 -47 -29 hvcurveto
          185 573 -271 vlineto
          -94 -55 -70 -89 -1 vhcurveto
          -675 -11 -100 callgsubr
          1059 447 -84 callgsubr
          -1391 -105 callgsubr
          124 295 vlineto
          67 35 60 93 vhcurveto
          133 hlineto
          -49 -31 -28 -52 -64 vvcurveto
          -124 92 -62 116 78 65 32 55 38 vhcurveto
          -176 55 callsubr
        </CharString>
        <CharString name="dvK_DA">
          700 201 callsubr
          537 -91 -50 hlineto
          -76 -68 -21 -40 -47 hvcurveto
          39 -35 -49 23 -61 227 callgsubr
          -246 -276 -100 callgsubr
          1038 447 -84 callgsubr
          -1370 -108 454 -171 vlineto
          133 callgsubr
          67 43 -50 -71 vhcurveto
          0 vlineto
          -1 0 -2 -2 vvcurveto
          -150 97 -77 119 61 50 22 38 28 vhcurveto
          -165 127 316 -120 vlineto
          -73 -54 -35 -56 -73 -47 47 73 84 62 45 85 129 callgsubr
          hlineto
          endchar
        </CharString>
        <CharString name="dvK_JA">
          939 117 callgsubr
          680 40 rmoveto
          -54 -31 41 64 hvcurveto
          12 vlineto
          107 -72 93 -126 -74 -50 -33 -48 -27 vhcurveto
          171 791 -140 -270 -162 vlineto
          -64 -32 -41 -55 vhcurveto
          597 407 -84 callgsubr
          -1609 -108 454 -171 vlineto
          133 callgsubr
          67 43 -47 -70 vhcurveto
          -8 vlineto
          -105 72 -89 141 133 81 89 126 vhcurveto
          55 143 97 callgsubr
          endchar
        </CharString>
        <CharString name="dvK_KA">
          231 callsubr
          -60 -50 -20 -34 -36 hvcurveto
          34 -34 -46 20 -57 227 callgsubr
          -246 -276 -100 callgsubr
          964 -185 rmoveto
          -92 callsubr
          -1735 -108 454 -171 vlineto
          133 callgsubr
          62 42 -43 -63 5 vhcurveto
          -5 0 -5 -5 vvcurveto
          44 callgsubr
          vhcurveto
          -162 vlineto
          -122 185 rmoveto
          -70 -51 48 76 hvcurveto
          1 1 vlineto
          5 0 4 5 vvcurveto
          66 6 52 42 63 hhcurveto
          299 callsubr
        </CharString>
        <CharString name="dvK_KHA">
          1027 708 535 rmoveto
          -74 -50 -32 -46 -27 hvcurveto
          175 387 -93 vlineto
          -68 -23 -38 -41 -19 vhcurveto
          73 -26 -57 48 -89 hhcurveto
          -397 -350 -100 callgsubr
          1254 -185 106 callsubr
          -1697 -108 454 -171 vlineto
          133 callgsubr
          67 43 -50 -71 vhcurveto
          -59 vlineto
          -159 104 -97 165 109 75 56 72 43 vhcurveto
          173 callsubr
          -103 220 rmoveto
          -59 -47 38 70 66 48 39 58 71 31 -54 -52 1 hvcurveto
          -53 -34 -54 -69 vhcurveto
          -284 -114 rmoveto
          -92 -52 60 83 hvcurveto
          61 vlineto
          96 8 71 64 140 vvcurveto
          110 364 -161 vlineto
          36 -26 -42 25 -63 hhcurveto
          -112 -82 -84 -120 -66 23 -55 40 -37 hvcurveto
          -34 -22 -38 -30 -65 hhcurveto
          endchar
        </CharString>
        <CharString name="dvK_LA">
          1000 1173 406 rmoveto
          235 callsubr
          -61 -55 -20 -39 -40 hvcurveto
          40 -31 -45 23 -57 hhcurveto
          180 callgsubr
          174 750 45 callgsubr
          -862 -221 -100 callgsubr
          246 116 rmoveto
          66 31 64 80 62 42 -43 -63 5 vhcurveto
          -1 -9 0 -11 -10 vvcurveto
          136 callsubr
          163 -21 callsubr
          vhcurveto
          -88 callgsubr
          -62 callsubr
          -1668 -105 callgsubr
          124 vlineto
          endchar
        </CharString>
        <CharString name="dvK_MA">
          921 148 callgsubr
          -397 -350 -21 callgsubr
        </CharString>
        <CharString name="dvK_NA">
          904 708 542 rmoveto
          -74 -50 -33 -48 -27 hvcurveto
          171 755 188 callgsubr
          -55 -50 -13 -26 -39 hvcurveto
          52 -29 -49 30 -73 hhcurveto
          184 -249 -100 callsubr
          -581 -108 -100 callgsubr
          1241 447 -84 callgsubr
          -1573 -108 454 -171 vlineto
          133 callgsubr
          63 42 -44 -65 5 vhcurveto
          -1 -9 -1 -10 -10 -22 callsubr
        </CharString>
        <CharString name="dvK_NNA">
          939 201 callsubr
          214 -114 hlineto
          8 -20 -22 4 -24 hhcurveto
          -72 -49 -30 -45 -27 hvcurveto
          -246 -270 -100 callgsubr
          670 83 rmoveto
          -59 callsubr
          606 364 -84 callgsubr
          -1608 -108 454 -171 vlineto
          133 callgsubr
          52 37 -30 -43 14 vhcurveto
          -113 6 70 -86 133 hhcurveto
          139 71 91 122 hvcurveto
          260 157 -632 55 callsubr
        </CharString>
        <CharString name="dvK_PA">
          717 201 callsubr
          194 -102 hlineto
          3 -15 -16 2 -17 hhcurveto
          -71 -48 -30 -45 -27 hvcurveto
          -246 -275 -100 callgsubr
          693 98 rmoveto
          -89 callsubr
          -1387 -105 callgsubr
          124 301 vlineto
          66 30 64 77 45 34 -28 -43 14 vhcurveto
          -111 20 72 -75 122 15 callsubr
        </CharString>
        <CharString name="dvK_PHA">
          193 callgsubr
          -246 -274 -100 callgsubr
          697 98 -1 callgsubr
          -1717 -108 454 -171 vlineto
          133 callgsubr
          48 37 -26 -42 15 vhcurveto
          -113 18 70 -76 120 hhcurveto
          66 49 24 41 31 hvcurveto
          -239 -101 callsubr
          endchar
        </CharString>
        <CharString name="dvK_P_RA">
          717 201 callsubr
          194 -102 hlineto
          3 -15 -16 2 -17 hhcurveto
          -71 -48 -30 -45 -27 hvcurveto
          -246 -275 -100 callgsubr
          693 98 rmoveto
          -89 callsubr
          -1387 -105 callgsubr
          124 301 vlineto
          66 30 64 77 45 32 -26 -42 15 vhcurveto
          19 -101 62 -71 107 -10 -42 callgsubr
        </CharString>
        <CharString name="dvK_R">
          87 557 hmoveto
          301 vlineto
          65 2 33 65 80 hhcurveto
          67 47 -50 -71 hvcurveto
          212 callsubr
          -75 -52 -34 -49 -28 vhcurveto
          173 360 108 -938 -108 454 -171 vlineto
          48 -30 -53 33 -77 hhcurveto
          -130 -84 -93 -139 -119 70 -84 102 -16 hvcurveto
          20 callgsubr
        </CharString>
        <CharString name="dvK_RA">
          348 557 7 callgsubr
          -1017 -108 454 -171 vlineto
          48 -30 -53 33 -77 hhcurveto
          -130 -84 -93 -139 -119 70 -84 102 -16 hvcurveto
          20 callgsubr
        </CharString>
        <CharString name="dvK_SA">
          904 83 callgsubr
          173 -208 -208 vlineto
          -25 callsubr
          413 76 rmoveto
          108 -1574 -69 callgsubr
          408 -319 128 632 vlineto
          endchar
        </CharString>
        <CharString name="dvK_SHA">
          914 117 callgsubr
          397 350 rmoveto
          -74 -50 -32 -46 -27 hvcurveto
          175 416 vlineto
          4 12 9 1 13 hhcurveto
          58 35 -39 -60 -95 -86 -35 -95 hvcurveto
          -37 hlineto
          76 -25 -58 51 -91 hhcurveto
          512 -332 rmoveto
          16 -126 -14 vlineto
          251 callsubr
          -69 -28 221 callgsubr
          59 vlineto
          147 117 74 157 141 -89 78 -131 -25 -24 -3 -6 -20 hvcurveto
          -962 112 callsubr
          67 43 -50 -71 vhcurveto
          -87 vlineto
          -140 83 -91 146 131 82 79 132 vhcurveto
          232 -203 rmoveto
          632 111 271 callgsubr
        </CharString>
        <CharString name="dvK_SS">
          -80 206 552 -71 callsubr
          350 94 -226 hlineto
          33 31 22 40 55 -51 callgsubr
          endchar
        </CharString>
        <CharString name="dvK_SSA">
          210 206 552 -71 callsubr
          302 -356 124 -65 callsubr
          -235 -290 -178 hlineto
          33 31 22 40 55 -51 callgsubr
          endchar
        </CharString>
        <CharString name="dvK_SS_MA">
          744 798 175 rmoveto
          -48 -36 31 4 callgsubr
          71 -65 hlineto
          -64 -29 -40 -55 vhcurveto
          -592 377 -71 callsubr
          296 hlineto
          -15 -27 -9 -32 -38 vvcurveto
          191 callsubr
          138 vhcurveto
          59 150 -345 129 633 111 107 -799 -107 288 -182 -436 vlineto
          33 31 22 40 55 -51 callgsubr
          777 510 rmoveto
          -150 182 150 hlineto
          endchar
        </CharString>
        <CharString name="dvK_SS_M_YA">
          1197 797 169 rmoveto
          -48 -36 31 54 53 124 callsubr
          71 -65 hlineto
          -63 -30 -41 -54 vhcurveto
          -591 383 -71 callsubr
          297 hlineto
          -17 -28 -10 -34 -41 vvcurveto
          115 callgsubr
          131 71 81 139 vhcurveto
          58 136 vlineto
          -155 10 95 -99 162 hhcurveto
          95 48 callsubr
          -170 143 callsubr
          -1254 -108 289 -188 -441 vlineto
          36 32 25 42 58 -51 callgsubr
          804 504 rmoveto
          -179 188 310 -67 hlineto
          -83 -45 -38 -86 vhcurveto
          252 -252 rmoveto
          -108 260 callsubr
          110 11 64 71 110 vvcurveto
          87 168 -269 vlineto
          -100 -70 -71 -104 vhcurveto
          endchar
        </CharString>
        <CharString name="dvK_SS_VA">
          580 206 552 -71 callsubr
          279 hlineto
          -2 -13 -1 -15 -14 vvcurveto
          -140 88 -99 138 76 58 31 52 139 callsubr
          -167 vlineto
          50 -34 -57 31 -77 hhcurveto
          -84 -66 -37 -59 -39 hvcurveto
          -189 hlineto
          33 31 22 40 55 -51 callgsubr
          483 238 rmoveto
          -78 -55 52 81 79 57 52 76 91 42 -66 -66 hvcurveto
          -1 vlineto
          -62 -42 -69 -91 vhcurveto
          endchar
        </CharString>
        <CharString name="dvK_SS_YA">
          656 206 552 -71 callsubr
          273 hlineto
          -160 3 104 -103 168 hhcurveto
          91 65 34 51 39 hvcurveto
          -178 143 callsubr
          -712 -108 177 -67 vlineto
          -86 -59 -35 -83 vhcurveto
          -188 hlineto
          36 32 25 42 58 -51 callgsubr
          515 261 rmoveto
          -107 -60 66 92 -1 hvcurveto
          120 16 55 77 113 vvcurveto
          67 167 -260 vlineto
          -100 -69 -71 -105 vhcurveto
          endchar
        </CharString>
        <CharString name="dvK_S_DDA">
          1184 158 callsubr
          -397 -345 -100 callgsubr
          831 371 rmoveto
          76 445 -92 -88 vlineto
          -86 -78 -34 -82 -15 hvcurveto
          -214 hlineto
          23 35 13 45 52 vvcurveto
          691 207 callsubr
          -1854 -108 454 -171 vlineto
          133 callgsubr
          67 43 -50 -62 vhcurveto
          -110 vlineto
          -124 72 306 callsubr
          247 callsubr
          427 vlineto
          -65 34 80 -16 61 hhcurveto
          -38 callsubr
        </CharString>
        <CharString name="dvK_S_P_LA">
          1864 158 callsubr
          434 26 rmoveto
          76 153 -204 vlineto
          -4 -189 vlineto
          23 35 13 45 52 vvcurveto
          -831 217 callgsubr
          1230 98 40 callgsubr
          -344 -95 rmoveto
          247 callsubr
          406 vlineto
          -88 30 72 -57 112 hhcurveto
          50 42 13 22 33 hvcurveto
          -98 28 82 -67 129 hhcurveto
          -21 callsubr
          hvcurveto
          -88 callgsubr
          -62 callsubr
          -2531 -108 454 -171 vlineto
          133 callgsubr
          67 43 -50 -62 vhcurveto
          -110 vlineto
          -124 72 306 callsubr
          endchar
        </CharString>
        <CharString name="dvK_S_P_RA">
          1263 708 530 26 callgsubr
          432 26 rmoveto
          76 155 -204 vlineto
          -4 -190 vlineto
          -25 callsubr
          -829 217 callgsubr
          1237 98 rmoveto
          -89 callsubr
          -1931 -69 callgsubr
          407 vlineto
          27 -77 59 -52 90 -9 -42 callgsubr
        </CharString>
        <CharString name="dvK_S_TA">
          1305 83 callgsubr
          573 228 callgsubr
          -87 -77 -22 -48 -52 hvcurveto
          -253 hlineto
          -25 callsubr
          813 207 callsubr
          -1974 -69 callgsubr
          392 vlineto
          -5 -22 -3 -24 -26 -55 callgsubr
          endchar
        </CharString>
</ttFont>
